<svg xmlns="http://www.w3.org/2000/svg" xmlns:xlink="http://www.w3.org/1999/xlink" preserveAspectRatio="xMidYMid" width="24" height="18" viewBox="0 0 24 18">
  <defs>
    <style>
      .cls-1 {
        fill: #000;
        fill-rule: evenodd;
      }
    </style>
  </defs>
  <path d="M22.983,-0.009 L1.017,-0.009 C0.453,-0.009 -0.006,0.450 -0.006,1.015 L-0.006,16.986 C-0.006,17.550 0.453,18.009 1.017,18.009 L22.983,18.009 C23.547,18.009 24.006,17.550 24.006,16.986 L24.006,1.015 C24.006,0.450 23.547,-0.009 22.983,-0.009 ZM2.010,14.023 L2.010,3.187 L7.361,8.671 L2.010,14.023 ZM12.001,10.506 L3.752,2.038 L20.250,2.038 L12.001,10.506 ZM12.726,12.679 L15.211,10.133 L21.072,15.994 L2.931,15.994 L8.789,10.133 L11.277,12.683 C11.470,12.877 11.727,12.984 11.999,12.984 C12.273,12.984 12.530,12.877 12.726,12.679 ZM16.641,8.669 L21.993,3.187 L21.993,14.023 L16.641,8.669 Z" class="cls-1"/>
</svg>
