<svg xmlns="http://www.w3.org/2000/svg" xmlns:xlink="http://www.w3.org/1999/xlink" preserveAspectRatio="xMidYMid" width="38" height="38.03" viewBox="0 0 38 38.03">
  <defs>
    <style>
      .cls-1 {
        fill: #fff;
        fill-rule: evenodd;
      }
    </style>
  </defs>
  <path d="M-0.014,-0.000 L-0.014,38.022 L38.008,38.022 L38.008,-0.000 L-0.014,-0.000 ZM13.497,28.636 C8.135,28.636 3.872,24.373 3.872,19.011 C3.872,13.649 8.135,9.386 13.497,9.386 C16.110,9.386 18.310,10.348 19.960,11.998 L17.347,14.474 C16.660,13.786 15.422,12.961 13.497,12.961 C10.197,12.961 7.585,15.711 7.585,19.011 C7.585,22.311 10.197,25.061 13.497,25.061 C17.347,25.061 18.722,22.311 18.997,20.936 L13.497,20.936 L13.497,17.636 L22.573,17.636 C22.710,18.186 22.710,18.599 22.710,19.286 C22.710,24.786 18.997,28.636 13.497,28.636 L13.497,28.636 ZM34.123,20.386 L31.373,20.386 L31.373,23.136 L28.622,23.136 L28.622,20.386 L25.872,20.386 L25.872,17.636 L28.622,17.636 L28.622,14.886 L31.373,14.886 L31.373,17.636 L34.123,17.636 L34.123,20.386 Z" class="cls-1"/>
</svg>
