<svg xmlns="http://www.w3.org/2000/svg" xmlns:xlink="http://www.w3.org/1999/xlink" preserveAspectRatio="xMidYMid" width="33" height="41.344" viewBox="0 0 33 41.344">
  <defs>
    <style>
      .cls-1 {
        fill: #fff;
        fill-rule: evenodd;
      }
    </style>
  </defs>
  <path d="M32.000,4.374 L26.988,4.374 L26.988,1.005 C26.988,0.452 26.541,0.005 25.988,0.005 C25.436,0.005 24.988,0.452 24.988,1.005 L24.988,4.374 L8.011,4.374 L8.011,1.005 C8.011,0.452 7.563,0.005 7.011,0.005 C6.458,0.005 6.011,0.452 6.011,1.005 L6.011,4.374 L1.000,4.374 C0.447,4.374 0.000,4.821 0.000,5.374 L0.000,14.901 L0.000,40.339 C0.000,40.892 0.447,41.339 1.000,41.339 L32.000,41.339 C32.553,41.339 33.000,40.892 33.000,40.339 L33.000,14.901 L33.000,5.374 C33.000,4.821 32.553,4.374 32.000,4.374 ZM6.011,6.374 L6.011,8.157 C6.011,8.709 6.458,9.156 7.011,9.156 C7.563,9.156 8.011,8.709 8.011,8.157 L8.011,6.374 L24.988,6.374 L24.988,8.157 C24.988,8.709 25.436,9.156 25.988,9.156 C26.541,9.156 26.988,8.709 26.988,8.157 L26.988,6.374 L31.000,6.374 L31.000,13.338 L2.000,13.338 L2.000,6.374 L6.011,6.374 ZM31.000,39.339 L2.000,39.339 L2.000,15.338 L31.000,15.338 L31.000,39.339 Z" class="cls-1"/>
</svg>
