<svg xmlns="http://www.w3.org/2000/svg" xmlns:xlink="http://www.w3.org/1999/xlink" preserveAspectRatio="xMidYMid" width="33" height="41" viewBox="0 0 33 41">
  <defs>
    <style>
      .cls-1 {
        fill: #fff;
        fill-rule: evenodd;
      }
    </style>
  </defs>
  <path d="M32.000,41.000 L1.000,41.000 C0.448,41.000 -0.000,40.553 -0.000,40.000 L-0.000,1.000 C-0.000,0.447 0.448,0.000 1.000,0.000 L23.000,0.000 C23.134,0.000 23.266,0.027 23.387,0.078 C23.510,0.130 23.619,0.205 23.711,0.299 C23.712,0.300 23.714,0.300 23.715,0.301 L32.715,10.269 C32.749,10.304 32.765,10.350 32.793,10.389 C32.840,10.453 32.892,10.512 32.923,10.587 C32.973,10.707 33.000,10.836 33.000,10.969 L33.000,40.000 C33.000,40.553 32.553,41.000 32.000,41.000 ZM31.000,11.969 L23.000,11.969 C22.447,11.969 22.000,11.521 22.000,10.969 L22.000,2.000 L2.000,2.000 L2.000,39.000 L31.000,39.000 L31.000,11.969 ZM15.988,27.002 L15.988,11.018 L18.000,11.018 L18.000,26.845 L23.026,21.818 L24.271,23.063 L17.217,30.117 L16.916,29.816 L16.614,30.117 L9.560,23.063 L10.805,21.818 L15.988,27.002 Z" class="cls-1"/>
</svg>
