<svg xmlns="http://www.w3.org/2000/svg" xmlns:xlink="http://www.w3.org/1999/xlink" preserveAspectRatio="xMidYMid" width="26.5" height="26.5" viewBox="0 0 26.5 26.5">
  <defs>
    <style>
      .cls-1 {
        fill: #000;
        fill-rule: evenodd;
      }
    </style>
  </defs>
  <path d="M26.503,24.175 L24.170,26.508 L16.670,19.008 C12.563,21.990 6.776,21.643 3.077,17.944 C-1.021,13.846 -1.022,7.178 3.077,3.080 C7.174,-1.017 13.841,-1.017 17.939,3.082 C21.638,6.781 21.985,12.569 19.004,16.675 L26.503,24.175 ZM16.383,4.637 C13.143,1.397 7.872,1.396 4.632,4.635 C1.392,7.876 1.392,13.148 4.632,16.388 C7.872,19.628 13.143,19.627 16.383,16.386 C19.623,13.147 19.623,7.877 16.383,4.637 Z" class="cls-1"/>
</svg>
