<svg xmlns="http://www.w3.org/2000/svg" xmlns:xlink="http://www.w3.org/1999/xlink" preserveAspectRatio="xMidYMid" width="38.03" height="38.03" viewBox="0 0 38.03 38.03">
  <defs>
    <style>
      .cls-1 {
        fill: #fff;
        fill-rule: evenodd;
      }
    </style>
  </defs>
  <path d="M0.002,0.005 L0.002,38.024 L38.020,38.024 L38.020,0.005 L0.002,0.005 ZM29.476,13.647 C29.487,13.879 29.492,14.112 29.492,14.346 C29.492,21.482 24.060,29.709 14.128,29.709 C11.079,29.709 8.240,28.816 5.851,27.283 C6.273,27.334 6.703,27.359 7.139,27.359 C9.669,27.359 11.997,26.496 13.845,25.047 C11.482,25.004 9.488,23.443 8.800,21.298 C9.130,21.361 9.469,21.395 9.817,21.395 C10.309,21.395 10.786,21.328 11.239,21.205 C8.769,20.709 6.908,18.526 6.908,15.910 C6.908,15.888 6.908,15.865 6.908,15.842 C7.636,16.247 8.469,16.490 9.354,16.517 C7.905,15.549 6.952,13.897 6.952,12.023 C6.952,11.033 7.218,10.106 7.683,9.308 C10.346,12.575 14.325,14.725 18.813,14.950 C18.721,14.555 18.673,14.143 18.673,13.720 C18.673,10.738 21.091,8.320 24.073,8.320 C25.626,8.320 27.029,8.976 28.015,10.025 C29.244,9.783 30.400,9.333 31.443,8.715 C31.040,9.975 30.184,11.034 29.069,11.702 C30.161,11.572 31.202,11.282 32.171,10.852 C31.447,11.935 30.531,12.886 29.476,13.647 L29.476,13.647 Z" class="cls-1"/>
</svg>
