<svg xmlns="http://www.w3.org/2000/svg" xmlns:xlink="http://www.w3.org/1999/xlink" preserveAspectRatio="xMidYMid" width="38" height="38.03" viewBox="0 0 38 38.03">
  <defs>
    <style>
      .cls-1 {
        fill: #fff;
        fill-rule: evenodd;
      }
    </style>
  </defs>
  <path d="M-0.004,38.018 L-0.004,0.009 L38.005,0.009 L38.005,38.018 L-0.004,38.018 ZM14.743,5.269 C14.743,5.269 14.109,7.963 13.806,9.239 L13.805,9.239 C13.503,7.963 12.868,5.269 12.868,5.269 L11.281,5.269 C11.281,5.269 12.501,9.312 13.046,11.116 C13.066,11.182 13.075,11.252 13.075,11.320 L13.074,15.456 L14.538,15.456 L14.537,11.320 C14.537,11.252 14.546,11.181 14.566,11.116 C15.111,9.312 16.330,5.269 16.330,5.269 L14.743,5.269 ZM20.237,9.740 C20.237,8.637 19.343,7.742 18.241,7.742 C17.137,7.742 16.244,8.637 16.244,9.740 L16.244,13.648 C16.244,14.751 17.137,15.645 18.241,15.645 C19.343,15.645 20.237,14.751 20.237,13.648 L20.237,9.740 ZM23.946,7.931 L23.946,13.512 C23.946,13.559 23.951,13.620 23.926,13.652 C23.746,13.879 23.534,14.072 23.257,14.167 C23.029,14.246 22.854,14.135 22.812,13.898 C22.798,13.824 22.792,13.747 22.792,13.671 L22.792,7.931 L21.408,7.931 L21.408,14.367 C21.410,14.554 21.443,14.747 21.499,14.928 C21.665,15.468 22.109,15.633 22.631,15.531 C22.970,15.465 23.261,15.296 23.517,15.071 C23.662,14.943 23.793,14.801 23.947,14.649 L23.946,15.458 L25.340,15.458 L25.341,7.931 L23.946,7.931 ZM30.319,20.951 C30.319,19.102 28.841,17.591 26.993,17.552 C21.666,17.438 16.336,17.438 11.009,17.552 C9.160,17.591 7.682,19.102 7.682,20.951 L7.682,29.272 C7.682,31.122 9.160,32.633 11.009,32.672 C16.336,32.786 21.666,32.786 26.993,32.672 C28.841,32.633 30.319,31.122 30.319,29.272 L30.319,20.951 ZM28.436,27.371 C28.436,27.371 28.457,28.506 28.279,29.024 C28.043,29.716 27.555,30.100 26.840,30.205 C26.396,30.270 25.957,30.260 25.540,30.072 C24.971,29.815 24.648,29.351 24.510,28.759 C24.445,28.484 24.414,28.195 24.410,27.913 C24.399,26.803 24.405,25.692 24.407,24.582 C24.408,24.001 24.546,23.466 24.944,23.021 C25.398,22.513 25.978,22.324 26.641,22.366 C26.841,22.379 27.044,22.411 27.233,22.474 C27.878,22.686 28.222,23.169 28.358,23.810 C28.409,24.057 28.429,24.313 28.433,24.565 C28.444,25.157 28.429,26.462 28.429,26.462 L25.819,26.462 L25.819,28.333 C25.819,28.669 26.091,28.941 26.427,28.941 C26.762,28.941 27.034,28.669 27.034,28.333 L27.034,27.371 L28.436,27.371 ZM27.034,25.303 L27.034,24.252 C27.034,23.917 26.762,23.644 26.427,23.644 C26.091,23.644 25.819,23.917 25.819,24.252 L25.819,25.303 L27.034,25.303 ZM22.088,30.130 C21.620,30.126 21.241,29.939 20.928,29.600 C20.893,29.563 20.796,29.460 20.796,29.460 L20.796,30.029 L19.433,30.029 L19.433,19.891 L20.796,19.891 L20.796,23.228 C20.796,23.228 20.873,23.075 20.943,22.996 C21.154,22.759 21.411,22.577 21.728,22.497 C22.251,22.366 22.854,22.528 23.141,23.138 C23.310,23.500 23.358,23.886 23.358,24.278 C23.360,25.694 23.360,27.111 23.358,28.528 C23.358,28.793 23.330,29.055 23.246,29.310 C23.064,29.857 22.664,30.136 22.088,30.130 ZM21.952,24.340 C21.951,24.198 21.910,24.051 21.857,23.918 C21.787,23.743 21.637,23.657 21.448,23.638 C21.228,23.617 21.051,23.706 20.891,23.848 C20.827,23.904 20.797,23.987 20.797,23.987 L20.801,28.488 L20.801,28.599 C20.801,28.599 20.839,28.651 20.845,28.658 C20.975,28.799 21.127,28.910 21.321,28.951 C21.641,29.016 21.868,28.883 21.930,28.586 C21.946,28.512 21.955,28.435 21.955,28.360 C21.957,27.018 21.959,25.679 21.952,24.340 ZM16.711,29.206 C16.661,29.259 16.634,29.288 16.608,29.317 C16.315,29.647 15.983,29.922 15.560,30.068 C15.353,30.139 15.140,30.163 14.922,30.126 C14.626,30.076 14.426,29.905 14.306,29.635 C14.194,29.386 14.166,29.119 14.165,28.850 C14.162,27.858 14.163,22.605 14.163,22.554 L15.520,22.554 C15.523,22.600 15.528,26.371 15.529,28.209 C15.529,28.310 15.530,28.413 15.550,28.510 C15.600,28.757 15.789,28.863 16.027,28.776 C16.300,28.676 16.509,28.488 16.684,28.262 C16.710,28.229 16.710,28.171 16.710,28.124 L16.710,22.546 L18.071,22.543 L18.071,30.030 L16.711,30.030 L16.711,29.206 ZM12.573,30.030 L11.037,30.030 L11.037,21.345 L9.446,21.345 L9.446,19.892 L14.167,19.892 L14.167,21.342 L12.573,21.342 L12.573,30.030 ZM18.241,14.303 C17.923,14.303 17.664,14.044 17.664,13.727 L17.664,9.661 C17.664,9.343 17.923,9.085 18.241,9.085 C18.558,9.085 18.817,9.343 18.817,9.661 L18.817,13.727 C18.817,14.044 18.558,14.303 18.241,14.303 Z" class="cls-1"/>
</svg>
