<svg xmlns="http://www.w3.org/2000/svg" xmlns:xlink="http://www.w3.org/1999/xlink" preserveAspectRatio="xMidYMid" width="24.88" height="27.781" viewBox="0 0 24.88 27.781">
  <defs>
    <style>
      .cls-1 {
        fill: #000;
        fill-rule: evenodd;
      }
    </style>
  </defs>
  <path d="M23.879,27.791 L1.002,27.791 C0.449,27.791 0.002,27.344 0.002,26.791 C0.002,20.889 4.803,15.816 10.706,15.816 L14.179,15.816 C17.033,15.816 19.718,16.931 21.742,18.955 C23.766,20.980 24.881,23.938 24.879,26.792 C24.879,27.344 24.430,27.791 23.879,27.791 ZM20.328,20.369 C18.682,18.723 16.499,17.816 14.179,17.816 L10.706,17.816 C6.245,17.816 2.556,21.461 2.058,25.791 L22.822,25.791 C22.601,23.849 21.735,21.777 20.328,20.369 ZM12.441,14.248 C8.509,14.248 5.311,11.052 5.311,7.123 C5.311,3.194 8.509,-0.004 12.441,-0.004 C16.372,-0.004 19.569,3.193 19.569,7.121 C19.569,11.051 16.372,14.248 12.441,14.248 ZM12.441,1.996 C9.612,1.996 7.311,4.296 7.311,7.123 C7.311,9.949 9.612,12.248 12.441,12.248 C15.268,12.248 17.569,9.948 17.569,7.121 C17.569,4.295 15.268,1.996 12.441,1.996 Z" class="cls-1"/>
</svg>
