<?xml version="1.0" standalone="no"?>
<!DOCTYPE svg PUBLIC "-//W3C//DTD SVG 1.1//EN" "http://www.w3.org/Graphics/SVG/1.1/DTD/svg11.dtd" >
<svg>
<metadata>
Created by FontForge 20120731 at Thu Oct 27 17:35:51 2016
 By ,,,
Copyright (c) 2014 by Mattox Shuler. All rights reserved.
</metadata>
<defs>
<font id="Factoria-Book" horiz-adv-x="650" >
  <font-face 
    font-family="Factoria Book"
    font-weight="400"
    font-stretch="normal"
    units-per-em="1000"
    panose-1="0 0 5 0 0 0 0 0 0 0"
    ascent="815"
    descent="-185"
    x-height="540"
    cap-height="700"
    bbox="-138 -291 1024 940"
    underline-thickness="50"
    underline-position="-50"
    unicode-range="U+0020-FB02"
  />
<missing-glyph horiz-adv-x="644" 
 />
    <glyph glyph-name="fi" unicode="fi" horiz-adv-x="685" 
d="M39 540h89v54q0 136 136 136h77v-60h-77q-38 0 -54 -16t-16 -54v-60h137v-60h-136v-422h118v-58h-280v58h94v422h-88v60zM566 710v-88h-78v88h78zM561 58h86v-58h-244v58h90v424h-90v58h158v-482z" />
    <glyph glyph-name="fl" unicode="fl" horiz-adv-x="685" 
d="M39 540h89v54q0 136 136 136h77v-60h-77q-38 0 -54 -16t-16 -54v-60h137v-60h-136v-422h118v-58h-280v58h94v422h-88v60zM561 58h86v-58h-244v58h90v614h-90v58h158v-672z" />
    <glyph glyph-name=".notdef" horiz-adv-x="644" 
 />
    <glyph glyph-name=".null" horiz-adv-x="0" 
 />
    <glyph glyph-name="nonmarkingreturn" horiz-adv-x="333" 
 />
    <glyph glyph-name="space" unicode=" " horiz-adv-x="270" 
 />
    <glyph glyph-name="exclam" unicode="!" horiz-adv-x="320" 
d="M204 700l-20 -502h-48l-20 502h88zM206 100v-100h-92v100h92z" />
    <glyph glyph-name="quotedbl" unicode="&#x22;" horiz-adv-x="403" 
d="M78 700h97l-26 -228h-45zM228 700h97l-26 -228h-45z" />
    <glyph glyph-name="numbersign" unicode="#" horiz-adv-x="783" 
d="M724 456h-135l-54 -184h121v-60h-138l-61 -212h-67l61 212h-202l-61 -212h-67l61 212h-124v60h141l54 184h-127v60h144l53 184h67l-53 -184h202l53 184h67l-53 -184h118v-60zM468 272l53 184h-202l-53 -184h202z" />
    <glyph glyph-name="dollar" unicode="$" horiz-adv-x="620" 
d="M336 634v-248l74 -17q55 -13 85 -31q61 -36 61 -155q0 -100 -33 -141.5t-109 -41.5h-76v-92h-64v92h-70q-74 0 -107 41.5t-33 141.5v28h72v-33q0 -66 15 -89t57 -23h68v263l-64 15q-40 9 -60 17.5t-43 25.5q-43 35 -43 136q0 96 33 136.5t109 40.5h66v92h64v-92h63
q74 0 107 -40.5t33 -136.5v-27h-72v32q0 62 -15.5 84t-56.5 22h-61zM245 407l31 -7v234h-64q-41 0 -56.5 -22t-15.5 -84q0 -64 18 -85q20 -21 87 -36zM336 316v-250h74q42 0 57 23t15 89q0 69 -17 91q-17 21 -83 36z" />
    <glyph glyph-name="percent" unicode="%" horiz-adv-x="658" 
d="M134 700h75q37 0 54.5 -17t17.5 -55v-132q0 -38 -17.5 -55t-54.5 -17h-75q-38 0 -55 17t-17 55v132q0 38 17 55t55 17zM489 700h60l-380 -700h-60zM227 498v128q0 14 -5 19t-19 5h-63q-14 0 -19 -5t-5 -19v-128q0 -14 5 -19t19 -5h63q14 0 19 5t5 19zM449 276h75
q38 0 55 -17t17 -55v-132q0 -38 -17 -55t-55 -17h-75q-37 0 -54.5 17t-17.5 55v132q0 38 17.5 55t54.5 17zM542 74v128q0 14 -5 19t-19 5h-63q-14 0 -19 -5t-5 -19v-128q0 -14 5 -19t19 -5h63q14 0 19 5t5 19z" />
    <glyph glyph-name="ampersand" unicode="&#x26;" horiz-adv-x="682" 
d="M637 328h-81v-188q0 -140 -140 -140h-191q-75 0 -107.5 43.5t-32.5 152.5q0 79 17 115t57 49q-34 15 -50 50t-16 104q0 101 33 143.5t107 42.5h168q140 0 140 -140v-63h-72v65q0 39 -16.5 55.5t-55.5 16.5h-160q-42 0 -57 -24.5t-15 -95.5q0 -73 15 -97q16 -24 57 -24
h400v-65zM484 138v190h-255q-40 0 -57 -26q-15 -26 -15 -105q0 -80 15 -106q16 -25 57 -25h183q39 0 55.5 16.5t16.5 55.5z" />
    <glyph glyph-name="quotesingle" unicode="'" horiz-adv-x="253" 
d="M78 700h97l-26 -228h-45z" />
    <glyph glyph-name="parenleft" unicode="(" horiz-adv-x="369" 
d="M291 764v-66h-39q-39 0 -55.5 -16.5t-16.5 -55.5v-594q0 -39 16.5 -55.5t55.5 -16.5h39v-66h-43q-140 0 -140 140v590q0 140 140 140h43z" />
    <glyph glyph-name="parenright" unicode=")" horiz-adv-x="369" 
d="M78 698v66h43q140 0 140 -140v-590q0 -140 -140 -140h-43v66h39q39 0 55.5 16.5t16.5 55.5v594q0 39 -16.5 55.5t-55.5 16.5h-39z" />
    <glyph glyph-name="asterisk" unicode="*" horiz-adv-x="426" 
d="M240 521l98 -111l-50 -36l-75 127l-75 -128l-50 37l98 111l-144 33l19 59l135 -60l-14 147h62l-14 -147l135 59l19 -59z" />
    <glyph glyph-name="plus" unicode="+" horiz-adv-x="532" 
d="M296 182h-60v158h-158v60h158v158h60v-158h158v-60h-158v-158z" />
    <glyph glyph-name="comma" unicode="," horiz-adv-x="248" 
d="M76 102h96v-74q0 -26 -6 -39q-6 -16 -31 -55l-36 -57h-40l63 123h-46v102z" />
    <glyph glyph-name="hyphen" unicode="-" horiz-adv-x="448" 
d="M76 364h296v-68h-296v68z" />
    <glyph glyph-name="period" unicode="." horiz-adv-x="248" 
d="M172 102v-102h-96v102h96z" />
    <glyph glyph-name="slash" unicode="/" horiz-adv-x="488" 
d="M388 770h66l-354 -840h-66z" />
    <glyph glyph-name="zero" unicode="0" horiz-adv-x="637" 
d="M419 0h-201q-140 0 -140 140v420q0 140 140 140h201q140 0 140 -140v-420q0 -140 -140 -140zM150 562v-424q0 -39 16.5 -55.5t55.5 -16.5h193q39 0 55.5 16.5t16.5 55.5v424q0 39 -16.5 55.5t-55.5 16.5h-193q-39 0 -55.5 -16.5t-16.5 -55.5z" />
    <glyph glyph-name="one" unicode="1" horiz-adv-x="455" 
d="M273 62h156v-62h-388v62h160v564l-161 -51v67l171 58h62v-638z" />
    <glyph glyph-name="two" unicode="2" horiz-adv-x="600" 
d="M532 203v-203h-460v179q0 54 45 89q19 13 99 55l166 85q26 13 40 21q32 22 32 47v86q0 39 -16.5 55.5t-55.5 16.5h-156q-39 0 -55.5 -16.5t-16.5 -55.5v-67h-72v65q0 140 140 140h164q140 0 140 -140v-84q0 -55 -45 -89q-19 -13 -99 -55l-166 -85q-27 -13 -39 -21
q-33 -19 -33 -47v-113h320v137h68z" />
    <glyph glyph-name="three" unicode="3" horiz-adv-x="596" 
d="M58 199h72v-31q0 -59 16 -80.5t56 -21.5h186q41 0 56 25q16 25 16 106q0 80 -16 105q-15 26 -56 26h-184v65h176q42 0 57 24.5t15 95.5q0 74 -16 97q-15 24 -56 24h-170q-40 0 -56 -21.5t-16 -80.5v-31h-72v29q0 91 33 130.5t107 39.5h178q76 0 109 -42t33 -145
q0 -70 -16.5 -104t-51.5 -49q42 -14 58 -47q18 -35 18 -116q0 -109 -33 -153t-109 -44h-194q-74 0 -107 39.5t-33 130.5v29z" />
    <glyph glyph-name="four" unicode="4" horiz-adv-x="623" 
d="M581 186h-105v-124h100v-62h-288v62h116v124h-360l-10 56l360 458h82v-448h105v-66zM119 252h285v360z" />
    <glyph glyph-name="five" unicode="5" horiz-adv-x="596" 
d="M518 634h-366v-255q44 40 89.5 59t111.5 19q94 0 134.5 -33t40.5 -107v-177q0 -140 -140 -140h-174q-140 0 -140 140v59h72v-61q0 -39 16.5 -55.5t55.5 -16.5h166q39 0 55.5 16.5t16.5 55.5v181q0 40 -22 56t-82 16q-109 0 -200 -63l-72 23v349h438v-66z" />
    <glyph glyph-name="six" unicode="6" horiz-adv-x="610" 
d="M524 504h-72v58q0 72 -72 72h-158q-72 0 -72 -72v-203q43 39 86 58q45 20 119 20q97 0 138 -33t41 -107v-157q0 -140 -140 -140h-176q-140 0 -140 140v420q0 140 140 140h166q140 0 140 -140v-56zM150 308v-170q0 -39 16.5 -55.5t55.5 -16.5h168q39 0 55.5 16.5
t16.5 55.5v161q0 41 -22.5 56.5t-86.5 15.5q-65 0 -110 -15t-93 -48z" />
    <glyph glyph-name="seven" unicode="7" horiz-adv-x="576" 
d="M42 700h496v-48l-264 -652h-76l256 634h-344v-128h-68v194z" />
    <glyph glyph-name="eight" unicode="8" horiz-adv-x="612" 
d="M542 512q0 -71 -16 -105t-52 -49q42 -14 58 -47q18 -35 18 -115q0 -109 -33 -152.5t-109 -43.5h-204q-76 0 -109 43.5t-33 152.5q0 79 17 115q17 33 59 47q-36 15 -52 49t-16 105q0 103 33 145.5t109 42.5h188q76 0 109 -42.5t33 -145.5zM396 634h-180q-40 0 -57 -24
q-15 -24 -15 -97q0 -74 15 -98q17 -24 57 -24h180q41 0 56 24q16 23 16 98q0 74 -16 97q-15 24 -56 24zM404 326h-196q-40 0 -57 -26q-15 -26 -15 -104q0 -80 15 -105q16 -25 57 -25h196q41 0 56 25q16 25 16 105q0 79 -16 104q-15 26 -56 26z" />
    <glyph glyph-name="nine" unicode="9" horiz-adv-x="610" 
d="M86 196h72v-58q0 -72 72 -72h158q72 0 72 72v199q-45 -40 -87 -59t-118 -19q-97 0 -138 33t-41 107v161q0 140 140 140h176q140 0 140 -140v-420q0 -140 -140 -140h-166q-140 0 -140 140v56zM460 388v174q0 39 -16.5 55.5t-55.5 16.5h-168q-39 0 -55.5 -16.5t-16.5 -55.5
v-165q0 -41 22.5 -56.5t86.5 -15.5q65 0 110 15t93 48z" />
    <glyph glyph-name="colon" unicode=":" horiz-adv-x="248" 
d="M172 540v-102h-96v102h96zM172 102v-102h-96v102h96z" />
    <glyph glyph-name="semicolon" unicode=";" horiz-adv-x="248" 
d="M76 102h96v-74q0 -26 -6 -39q-6 -16 -31 -55l-36 -57h-40l63 123h-46v102zM172 540v-102h-96v102h96z" />
    <glyph glyph-name="less" unicode="&#x3c;" horiz-adv-x="532" 
d="M74 388l372 236v-68l-322 -203l322 -202v-68l-372 235v70z" />
    <glyph glyph-name="equal" unicode="=" horiz-adv-x="532" 
d="M78 482h376v-65h-376v65zM78 311h376v-65h-376v65z" />
    <glyph glyph-name="greater" unicode="&#x3e;" horiz-adv-x="532" 
d="M86 556v68l372 -236v-70l-372 -235v68l322 202z" />
    <glyph glyph-name="question" unicode="?" horiz-adv-x="581" 
d="M182 700h199q140 0 140 -140v-59q0 -50 -34 -83q-36 -33 -110 -69l-26 -13q-41 -20 -56.5 -34.5t-15.5 -31.5v-82h-72v80q0 48 31 75q33 30 113 69l26 13q43 21 57.5 36t14.5 40v61q0 39 -16.5 55.5t-55.5 16.5h-191q-39 0 -55.5 -16.5t-16.5 -55.5v-71h-72v69
q0 140 140 140zM207 109h72v-109h-72v109z" />
    <glyph glyph-name="at" unicode="@" horiz-adv-x="951" 
d="M246 700h459q140 0 140 -140v-370q0 -140 -140 -140h-86l-20 66q-73 -76 -175 -76q-77 0 -113 34t-36 106v180q0 72 36 106t113 34q102 0 175 -76l20 72h40v-398h42q48 0 70 22t22 70v370q0 48 -22 70t-70 22h-451q-48 0 -70 -22t-22 -70v-580q0 -48 22 -70t70 -22h507
v-48h-511q-140 0 -140 140v580q0 140 140 140zM599 159v222q-44 36 -83 50.5t-90 14.5t-71 -18.5t-20 -61.5v-192q0 -43 20 -61.5t70 -18.5q51 0 90.5 14.5t83.5 50.5z" />
    <glyph glyph-name="A" unicode="A" horiz-adv-x="774" 
d="M662 62h90v-62h-262v62h98l-52 144h-300l-52 -144h96v-62h-258v62h90l211 576h-84v62h189zM259 272h253l-126 353z" />
    <glyph glyph-name="B" unicode="B" horiz-adv-x="690" 
d="M146 62v576h-100v62h432q76 0 109 -42t33 -145q0 -69 -16.5 -102.5t-51.5 -48.5q41 -13 58.5 -49t17.5 -115q0 -109 -33 -153.5t-109 -44.5h-440v62h100zM218 634v-239h256q42 0 57 24t15 95t-15 95.5t-57 24.5h-256zM218 330v-264h264q41 0 56 25q16 25 16 107
q0 81 -16 106q-15 26 -56 26h-264z" />
    <glyph glyph-name="C" unicode="C" horiz-adv-x="634" 
d="M426 0h-208q-140 0 -140 140v420q0 140 140 140h208q140 0 140 -140v-76h-72v78q0 39 -16.5 55.5t-55.5 16.5h-200q-39 0 -55.5 -16.5t-16.5 -55.5v-424q0 -39 16.5 -55.5t55.5 -16.5h200q39 0 55.5 16.5t16.5 55.5v78h72v-76q0 -140 -140 -140z" />
    <glyph glyph-name="D" unicode="D" horiz-adv-x="707" 
d="M46 0v62h100v576h-100v62h443q140 0 140 -140v-420q0 -140 -140 -140h-443zM218 634v-568h267q39 0 55.5 16.5t16.5 55.5v424q0 39 -16.5 55.5t-55.5 16.5h-267z" />
    <glyph glyph-name="E" unicode="E" 
d="M583 520h-68v116h-297v-246h293v-64h-293v-262h297v116h68v-180h-537v62h100v576h-100v62h537v-180z" />
    <glyph glyph-name="F" unicode="F" horiz-adv-x="629" 
d="M46 700h537v-180h-68v116h-297v-254h293v-64h-293v-256h116v-62h-288v62h100v576h-100v62z" />
    <glyph glyph-name="G" unicode="G" horiz-adv-x="653" 
d="M577 494h-72v68q0 39 -16.5 55.5t-55.5 16.5h-211q-39 0 -55.5 -16.5t-16.5 -55.5v-424q0 -39 16.5 -55.5t55.5 -16.5h211q39 0 55.5 16.5t16.5 55.5v155h-187v66h259v-219q0 -140 -140 -140h-219q-140 0 -140 140v420q0 140 140 140h219q140 0 140 -140v-66z" />
    <glyph glyph-name="H" unicode="H" horiz-adv-x="784" 
d="M738 638h-100v-576h100v-62h-272v62h100v273h-348v-273h100v-62h-272v62h100v576h-100v62h272v-62h-100v-237h348v237h-100v62h272v-62z" />
    <glyph glyph-name="I" unicode="I" horiz-adv-x="388" 
d="M338 638h-108v-576h108v-62h-288v62h108v576h-108v62h288v-62z" />
    <glyph glyph-name="J" unicode="J" horiz-adv-x="622" 
d="M580 700v-62h-92v-498q0 -140 -140 -140h-162q-140 0 -140 140v112h72v-114q0 -39 16.5 -55.5t55.5 -16.5h154q39 0 55.5 16.5t16.5 55.5v500h-116v62h280z" />
    <glyph glyph-name="K" unicode="K" horiz-adv-x="735" 
d="M636 62h81v-62h-122l-229 367l-148 -170v-135h116v-62h-288v62h100v576h-100v62h288v-62h-116v-355l300 355h-85v62h256v-62h-86l-192 -220z" />
    <glyph glyph-name="L" unicode="L" horiz-adv-x="622" 
d="M578 200v-200h-532v62h100v576h-100v62h292v-62h-120v-572h292v134h68z" />
    <glyph glyph-name="M" unicode="M" horiz-adv-x="939" 
d="M893 638h-100v-576h100v-62h-282v62h112v531l-222 -502h-65l-222 502v-531h112v-62h-280v62h100v576h-100v62h190l233 -522l234 522h190v-62z" />
    <glyph glyph-name="N" unicode="N" horiz-adv-x="788" 
d="M746 700v-62h-94v-638h-69l-371 603v-541h112v-62h-278v62h100v576h-100v62h180l360 -584v522h-112v62h272z" />
    <glyph glyph-name="O" unicode="O" horiz-adv-x="657" 
d="M439 0h-221q-140 0 -140 140v420q0 140 140 140h221q140 0 140 -140v-420q0 -140 -140 -140zM150 562v-424q0 -39 16.5 -55.5t55.5 -16.5h213q39 0 55.5 16.5t16.5 55.5v424q0 39 -16.5 55.5t-55.5 16.5h-213q-39 0 -55.5 -16.5t-16.5 -55.5z" />
    <glyph glyph-name="P" unicode="P" horiz-adv-x="670" 
d="M46 638v62h428q140 0 140 -140v-140q0 -140 -140 -140h-256v-218h116v-62h-288v62h100v576h-100zM542 418v144q0 39 -16.5 55.5t-55.5 16.5h-252v-288h252q39 0 55.5 16.5t16.5 55.5z" />
    <glyph glyph-name="Q" unicode="Q" horiz-adv-x="657" 
d="M218 700h221q140 0 140 -140v-420q0 -140 -140 -140h-74v-130h-72v130h-75q-140 0 -140 140v420q0 140 140 140zM507 138v424q0 39 -16.5 55.5t-55.5 16.5h-213q-39 0 -55.5 -16.5t-16.5 -55.5v-424q0 -39 16.5 -55.5t55.5 -16.5h213q39 0 55.5 16.5t16.5 55.5z" />
    <glyph glyph-name="R" unicode="R" horiz-adv-x="712" 
d="M595 62h93v-62h-140l-147 296h-183v-234h104v-62h-276v62h100v576h-100v62h428q140 0 140 -140v-120q0 -138 -137 -140zM218 634v-272h252q39 0 55.5 16.5t16.5 55.5v128q0 39 -16.5 55.5t-55.5 16.5h-252z" />
    <glyph glyph-name="S" unicode="S" horiz-adv-x="612" 
d="M538 496h-72v70q0 39 -16.5 55.5t-55.5 16.5h-184q-39 0 -55.5 -16.5t-16.5 -55.5v-71q0 -37 16 -54.5t56 -26.5l194 -45q64 -15 100 -39q44 -28 44 -104v-86q0 -140 -140 -140h-204q-140 0 -140 140v71h72v-77q0 -39 16.5 -55.5t55.5 -16.5h196q39 0 55.5 16.5
t16.5 55.5v84q0 37 -16 54.5t-56 26.5l-194 45q-64 15 -100 38q-44 30 -44 105v73q0 140 140 140h192q140 0 140 -140v-64z" />
    <glyph glyph-name="T" unicode="T" horiz-adv-x="662" 
d="M42 700h578v-200h-68v134h-185v-572h116v-62h-304v62h116v572h-185v-134h-68v200z" />
    <glyph glyph-name="U" unicode="U" horiz-adv-x="758" 
d="M716 700v-62h-92v-498q0 -140 -140 -140h-210q-140 0 -140 140v498h-92v62h264v-62h-100v-500q0 -39 16.5 -55.5t55.5 -16.5h202q39 0 55.5 16.5t16.5 55.5v500h-100v62h264z" />
    <glyph glyph-name="V" unicode="V" horiz-adv-x="746" 
d="M724 700v-62h-90l-220 -638h-82l-220 638h-90v62h260v-62h-93l184 -559l187 559h-92v62h256z" />
    <glyph glyph-name="W" unicode="W" horiz-adv-x="1046" 
d="M1024 700v-62h-91l-172 -638h-77l-160 587l-160 -587h-79l-172 638h-91v62h261v-62h-94l134 -546l166 608h70l166 -608l134 546h-94v62h259z" />
    <glyph glyph-name="X" unicode="X" horiz-adv-x="698" 
d="M595 62h81v-62h-242v62h80l-168 242l-167 -242h80v-62h-237v62h81l205 295l-197 281h-82v62h241v-62h-78l160 -229l159 229h-78v62h236v-62h-83l-197 -281z" />
    <glyph glyph-name="Y" unicode="Y" horiz-adv-x="724" 
d="M613 638l-215 -390v-186h116v-62h-304v62h116v186l-215 390h-87v62h256v-62h-91l174 -322l174 322h-91v62h254v-62h-87z" />
    <glyph glyph-name="Z" unicode="Z" horiz-adv-x="630" 
d="M498 200h68v-200h-502v53l411 582h-330v-135h-68v200h485v-53l-411 -582h347v135z" />
    <glyph glyph-name="bracketleft" unicode="[" horiz-adv-x="377" 
d="M299 698h-119v-738h119v-66h-191v870h191v-66z" />
    <glyph glyph-name="backslash" unicode="\" horiz-adv-x="488" 
d="M100 770l354 -840h-66l-354 840h66z" />
    <glyph glyph-name="bracketright" unicode="]" horiz-adv-x="377" 
d="M78 698v66h191v-870h-191v66h119v738h-119z" />
    <glyph glyph-name="asciicircum" unicode="^" horiz-adv-x="532" 
d="M100 414l125 286h82l125 -286h-64l-102 242l-102 -242h-64z" />
    <glyph glyph-name="underscore" unicode="_" horiz-adv-x="580" 
d="M18 -44h544v-56h-544v56z" />
    <glyph glyph-name="grave" unicode="`" horiz-adv-x="627" 
d="M355 766l-129 144h91l90 -144h-52z" />
    <glyph glyph-name="a" unicode="a" horiz-adv-x="588" 
d="M470 58h84v-58h-152v74q-36 -42 -79.5 -60t-113.5 -18q-84 0 -120.5 37.5t-36.5 122.5q0 82 31 113t105 39q93 11 214 15v87q0 38 -16 54t-54 16h-124q-38 0 -54 -16t-16 -54v-15h-68v9q0 136 136 136h128q136 0 136 -136v-346zM402 121v155l-212 -24q-41 -5 -55.5 -24
t-14.5 -72q0 -57 19 -78.5t71 -21.5q62 0 102 15q39 14 90 50z" />
    <glyph glyph-name="b" unicode="b" horiz-adv-x="616" 
d="M392 544q86 0 124 -32.5t38 -103.5v-276q0 -71 -38 -103.5t-124 -32.5q-48 0 -87 11q-38 12 -58 25q-22 15 -53 42v-74h-158v58h90v614h-90v58h158v-264q25 22 53 41q55 37 145 37zM486 128v284q0 39 -20.5 54.5t-74.5 15.5q-67 0 -107 -15q-39 -14 -90 -50v-294
q51 -36 90 -50q40 -15 107 -15q54 0 74.5 15.5t20.5 54.5z" />
    <glyph glyph-name="c" unicode="c" horiz-adv-x="526" 
d="M198 540h136q136 0 136 -136v-36h-68v40q0 38 -16 54t-54 16h-132q-38 0 -54 -16t-16 -54v-276q0 -38 16 -54t54 -16h132q38 0 54 16t16 54v40h68v-36q0 -136 -136 -136h-136q-136 0 -136 136v268q0 136 136 136z" />
    <glyph glyph-name="d" unicode="d" horiz-adv-x="610" 
d="M490 58h86v-58h-154v74q-33 -28 -54 -42q-57 -36 -144 -36q-86 0 -124 32.5t-38 103.5v276q0 71 38 103.5t124 32.5q48 0 86 -12q37 -10 58 -25q26 -16 54 -41v206h-100v58h168v-672zM422 123v294q-51 36 -90 50q-41 15 -107 15q-54 0 -74.5 -15.5t-20.5 -54.5v-284
q0 -39 20.5 -54.5t74.5 -15.5q67 0 107 15q39 14 90 50z" />
    <glyph glyph-name="e" unicode="e" horiz-adv-x="534" 
d="M476 256h-346v-126q0 -38 16 -54t54 -16h138q38 0 54 16t16 54v39h68v-33q0 -136 -136 -136h-142q-136 0 -136 136v268q0 136 136 136h142q136 0 136 -136v-148zM338 480h-138q-38 0 -54 -16t-16 -54v-98h278v98q0 38 -16 54t-54 16z" />
    <glyph glyph-name="f" unicode="f" horiz-adv-x="363" 
d="M341 730v-60h-77q-38 0 -54 -16t-16 -54v-60h137v-60h-136v-422h118v-58h-280v58h94v422h-88v60h89v54q0 136 136 136h77z" />
    <glyph glyph-name="g" unicode="g" horiz-adv-x="610" 
d="M576 540v-58h-86v-506q0 -136 -136 -136h-234v60h232q38 0 54 16t16 54v118q-33 -28 -54 -42q-57 -36 -144 -36q-86 0 -124 32.5t-38 103.5v262q0 71 38 103.5t124 32.5q48 0 86 -12q37 -10 58 -25q26 -16 54 -41v74h154zM422 137v280q-51 36 -90 50q-41 15 -107 15
q-54 0 -74.5 -15.5t-20.5 -54.5v-270q0 -39 20.5 -54.5t74.5 -15.5q67 0 107 15q39 14 90 50z" />
    <glyph glyph-name="h" unicode="h" horiz-adv-x="656" 
d="M538 58h84v-58h-238v58h86v355q0 39 -18.5 54.5t-68.5 15.5q-59 0 -100 -15q-37 -14 -89 -50v-360h86v-58h-244v58h90v614h-90v58h158v-263q49 41 86 59q38 19 104 19q80 0 117 -33t37 -103v-351z" />
    <glyph glyph-name="i" unicode="i" horiz-adv-x="322" 
d="M203 710v-88h-78v88h78zM198 58h86v-58h-244v58h90v424h-90v58h158v-482z" />
    <glyph glyph-name="j" unicode="j" horiz-adv-x="269" 
d="M125 710h78v-88h-78v88zM40 540h158v-560q0 -60 -32 -91t-104 -45l-50 -10v49l48 17q36 13 53 29.5t17 45.5v507h-90v58z" />
    <glyph glyph-name="k" unicode="k" horiz-adv-x="602" 
d="M508 58h82v-58h-123l-159 279l-114 -125v-96h86v-58h-244v58h90v614h-90v58h158v-498l223 250h-71v58h224v-58h-77l-141 -155z" />
    <glyph glyph-name="l" unicode="l" horiz-adv-x="322" 
d="M198 58h86v-58h-244v58h90v614h-90v58h158v-672z" />
    <glyph glyph-name="m" unicode="m" horiz-adv-x="960" 
d="M842 58h84v-58h-238v58h86v356q0 38 -17.5 54t-59.5 16q-51 0 -89.5 -14.5t-89.5 -50.5v-9v-352h86v-58h-240v58h86v356q0 38 -17.5 54t-59.5 16q-53 0 -92 -15q-36 -14 -87 -50v-361h86v-58h-244v58h90v424h-90v58h158v-72q50 42 85 59q37 19 95 19q114 0 138 -83
q46 43 88.5 63t97.5 20q75 0 109.5 -33.5t34.5 -102.5v-352z" />
    <glyph glyph-name="n" unicode="n" horiz-adv-x="656" 
d="M538 58h84v-58h-238v58h86v355q0 39 -19.5 54.5t-67.5 15.5q-59 0 -100 -15q-37 -14 -89 -50v-360h86v-58h-244v58h90v424h-90v58h158v-73q49 41 86 59q38 19 104 19q80 0 117 -33t37 -103v-351z" />
    <glyph glyph-name="o" unicode="o" horiz-adv-x="545" 
d="M198 540h149q136 0 136 -136v-268q0 -136 -136 -136h-149q-136 0 -136 136v268q0 136 136 136zM415 132v276q0 38 -16.5 54t-53.5 16h-145q-38 0 -54 -16t-16 -54v-276q0 -38 16 -54t54 -16h145q37 0 53.5 16t16.5 54z" />
    <glyph glyph-name="p" unicode="p" horiz-adv-x="616" 
d="M392 544q86 0 124 -32.5t38 -103.5v-276q0 -71 -38 -103.5t-124 -32.5q-48 0 -87 11q-38 12 -58 25q-22 15 -53 42v-176h106v-58h-264v58h90v584h-90v58h158v-74q25 22 53 41q55 37 145 37zM486 128v284q0 39 -20.5 54.5t-74.5 15.5q-67 0 -107 -15q-39 -14 -90 -50v-294
q51 -36 90 -50q40 -15 107 -15q54 0 74.5 15.5t20.5 54.5z" />
    <glyph glyph-name="q" unicode="q" horiz-adv-x="614" 
d="M580 482h-90v-584h90v-58h-264v58h106v176q-33 -28 -54 -42q-57 -36 -144 -36q-86 0 -124 32.5t-38 103.5v276q0 71 38 103.5t124 32.5q48 0 86 -12q37 -10 58 -25q26 -16 54 -41v74h158v-58zM225 58q67 0 107 15q39 14 90 50v294q-51 36 -90 50q-41 15 -107 15
q-54 0 -74.5 -15.5t-20.5 -54.5v-284q0 -39 20.5 -54.5t74.5 -15.5z" />
    <glyph glyph-name="r" unicode="r" horiz-adv-x="420" 
d="M366 540h24v-66h-24q-44 0 -81 -14.5t-91 -48.5v-353h110v-58h-268v58h90v422l-90 2v58h158v-78l50 39q20 16 54 27.5t68 11.5z" />
    <glyph glyph-name="s" unicode="s" horiz-adv-x="522" 
d="M453 386h-66v22q0 38 -16.5 54t-53.5 16h-116q-39 0 -54.5 -18.5t-15.5 -65.5q0 -37 13.5 -51t48.5 -20l157 -26q62 -10 89 -41t27 -97q0 -84 -33 -121.5t-103 -37.5h-138q-136 0 -136 136v27h66v-31q0 -38 16 -54t54 -16h136q39 0 54.5 20t15.5 74q0 43 -13 58.5
t-49 21.5l-157 26q-62 10 -89 39.5t-27 89.5q0 78 33 113.5t103 35.5h118q136 0 136 -136v-18z" />
    <glyph glyph-name="t" unicode="t" horiz-adv-x="370" 
d="M318 480h-135v-348q0 -38 16.5 -54t53.5 -16h65v-62h-67q-136 0 -136 136v344h-80v60h80v130h68v-130h135v-60z" />
    <glyph glyph-name="u" unicode="u" 
d="M530 58h86v-58h-154v73q-48 -41 -87 -60q-37 -18 -103 -18q-80 0 -117 33t-37 103v351h-84v58h152v-413q0 -39 19.5 -54.5t67.5 -15.5q59 0 100 15q37 14 89 50v360h-100v58h168v-482z" />
    <glyph glyph-name="v" unicode="v" horiz-adv-x="582" 
d="M566 540v-58h-66l-166 -482h-86l-166 482h-66v58h204v-58h-70l142 -427l142 427h-70v58h202z" />
    <glyph glyph-name="w" unicode="w" horiz-adv-x="838" 
d="M822 540v-58h-66l-131 -482h-77l-128 450l-128 -450h-79l-131 482h-66v58h204v-58h-70l102 -413l133 471h70l133 -471l102 413h-70v58h202z" />
    <glyph glyph-name="x" unicode="x" horiz-adv-x="570" 
d="M490 58h64v-58h-210v58h69l-133 174l-131 -174h69v-58h-202v58h63l164 215l-161 209h-64v58h210v-58h-69l129 -169l127 169h-69v58h202v-58h-63l-159 -210z" />
    <glyph glyph-name="y" unicode="y" horiz-adv-x="590" 
d="M574 482h-65l-225 -580h58v-62h-206v62h83l36 98l-175 482h-64v58h204v-58h-71l140 -405l152 405h-69v58h202v-58z" />
    <glyph glyph-name="z" unicode="z" horiz-adv-x="524" 
d="M408 152h64v-152h-420v42l330 440h-248v-94h-64v152h400v-42l-330 -440h268v94z" />
    <glyph glyph-name="braceleft" unicode="{" horiz-adv-x="418" 
d="M229 626v-183q0 -75 -72 -107q72 -30 72 -107v-197q0 -39 16.5 -55.5t55.5 -16.5h39v-66h-43q-140 0 -140 140v195q0 76 -72 76h-17v62h17q72 0 72 76v181q0 140 140 140h43v-66h-39q-39 0 -55.5 -16.5t-16.5 -55.5z" />
    <glyph glyph-name="bar" unicode="|" horiz-adv-x="326" 
d="M134 -216v983h58v-983h-58z" />
    <glyph glyph-name="braceright" unicode="}" horiz-adv-x="418" 
d="M189 443v183q0 39 -16.5 55.5t-55.5 16.5h-39v66h43q140 0 140 -140v-181q0 -76 72 -76h17v-62h-17q-72 0 -72 -76v-195q0 -140 -140 -140h-43v66h39q39 0 55.5 16.5t16.5 55.5v197q0 77 72 107q-72 31 -72 107z" />
    <glyph glyph-name="asciitilde" unicode="~" horiz-adv-x="552" 
d="M162 275h-58v25q0 42 25.5 68t64.5 26q40 0 92.5 -35t70.5 -35q33 0 33 33v29h58v-25q0 -42 -25.5 -68t-64.5 -26q-32 0 -64.5 17.5t-58 35t-40.5 17.5q-33 0 -33 -33v-29z" />
    <glyph glyph-name="exclamdown" unicode="&#xa1;" horiz-adv-x="320" 
d="M114 440v100h92v-100h-92zM116 -160l20 502h48l20 -502h-88z" />
    <glyph glyph-name="cent" unicode="&#xa2;" horiz-adv-x="576" 
d="M496 434h-72v34q0 39 -16.5 55.5t-55.5 16.5h-36v-374h36q39 0 55.5 16.5t16.5 55.5v34h72v-32q0 -140 -140 -140h-38v-100h-58v100h-38q-140 0 -140 140v226q0 140 140 140h38v94h58v-94h38q140 0 140 -140v-32zM262 166v374h-36q-39 0 -55.5 -16.5t-16.5 -55.5v-230
q0 -39 16.5 -55.5t55.5 -16.5h36z" />
    <glyph glyph-name="sterling" unicode="&#xa3;" horiz-adv-x="647" 
d="M503 186h68v-186h-521v66h62q11 0 15.5 4.5t4.5 15.5v230h-82v64h82v180q0 140 140 140h155q140 0 140 -140v-76h-72v78q0 39 -16.5 55.5t-55.5 16.5h-147q-39 0 -55.5 -16.5t-16.5 -55.5v-182h216v-64h-216v-250h299v120z" />
    <glyph glyph-name="currency" unicode="&#xa4;" horiz-adv-x="631" 
d="M512 438v-160q0 -49 -16 -80l73 -73l-45 -46l-74 74q-32 -15 -78 -15h-113q-47 0 -78 15l-74 -74l-45 46l73 73q-16 31 -16 80v160q0 46 15 78l-72 72l45 46l72 -72q31 16 80 16h113q49 0 80 -16l72 72l45 -46l-72 -72q15 -32 15 -78zM261 202h109q39 0 55.5 16.5
t16.5 55.5v168q0 39 -16.5 55.5t-55.5 16.5h-109q-39 0 -55.5 -16.5t-16.5 -55.5v-168q0 -39 16.5 -55.5t55.5 -16.5z" />
    <glyph glyph-name="yen" unicode="&#xa5;" horiz-adv-x="714" 
d="M690 638h-82l-165 -300h119v-62h-154l-15 -28v-32h169v-62h-169v-92h106v-62h-284v62h106v92h-169v62h169v32l-15 28h-154v62h119l-165 300h-82v62h242v-62h-82l166 -300h16l166 300h-82v62h240v-62z" />
    <glyph glyph-name="brokenbar" unicode="&#xa6;" horiz-adv-x="326" 
d="M134 381v386h58v-386h-58zM192 170v-386h-58v386h58z" />
    <glyph glyph-name="section" unicode="&#xa7;" horiz-adv-x="559" 
d="M474 544h-64v24q0 39 -16.5 55.5t-55.5 16.5h-114q-40 0 -56 -20t-16 -71q0 -37 15 -54.5t47 -22.5l161 -26q59 -10 85.5 -42.5t26.5 -103.5q0 -56 -11 -85.5t-34 -49.5q22 -16 30 -36.5t8 -64.5q0 -83 -33.5 -120.5t-106.5 -37.5h-128q-140 0 -140 140v27h64v-35
q0 -39 16.5 -55.5t55.5 -16.5h134q40 0 56 20.5t16 73.5q0 37 -15 55t-47 23l-157 26q-61 10 -88.5 43t-27.5 104q0 59 10 88t35 48q-22 16 -30 35.5t-8 61.5q0 81 34 118.5t106 37.5h108q140 0 140 -140v-16zM207 224l164 -27q27 -5 38.5 20t11.5 84q0 41 -15 60.5
t-47 24.5l-168 28q-24 4 -35 -20.5t-11 -81.5q0 -43 15 -63t47 -25z" />
    <glyph glyph-name="dieresis" unicode="&#xa8;" horiz-adv-x="664" 
d="M286 866v-100h-78v100h78zM456 866v-100h-78v100h78z" />
    <glyph glyph-name="copyright" unicode="&#xa9;" horiz-adv-x="871" 
d="M246 700h379q140 0 140 -140v-420q0 -140 -140 -140h-379q-140 0 -140 140v420q0 140 140 140zM713 140v420q0 48 -22 70t-70 22h-371q-48 0 -70 -22t-22 -70v-420q0 -48 22 -70t70 -22h371q48 0 70 22t22 70zM382 576h106q57 0 83.5 -26.5t26.5 -83.5v-46h-64v52
q0 26 -10 36t-36 10h-106q-26 0 -36 -10t-10 -36v-244q0 -26 10 -36t36 -10h106q26 0 36 10t10 36v52h64v-46q0 -57 -26.5 -83.5t-83.5 -26.5h-106q-57 0 -83.5 26.5t-26.5 83.5v232q0 57 26.5 83.5t83.5 26.5z" />
    <glyph glyph-name="ordfeminine" unicode="&#xaa;" horiz-adv-x="433" 
d="M337 397h54v-48h-106v47q-50 -50 -121 -50q-55 0 -78.5 24.5t-23.5 82.5q0 53 22.5 76.5t72.5 29.5q65 7 128 8v45q0 42 -42 42h-76q-42 0 -42 -42v-12h-53v10q0 90 90 90h85q90 0 90 -90v-213zM285 435v96l-129 -14q-24 -2 -33 -15t-9 -46q0 -36 11.5 -49t42.5 -13
q64 0 117 41zM70 234v48h321v-48h-321z" />
    <glyph glyph-name="guillemotleft" unicode="&#xab;" horiz-adv-x="438" 
d="M168 509h72l-141 -208l141 -207h-72l-128 187v40zM318 509h72l-141 -208l141 -207h-72l-128 187v40z" />
    <glyph glyph-name="registered" unicode="&#xae;" horiz-adv-x="382" 
d="M106 700h170q64 0 64 -64v-232q0 -64 -64 -64h-170q-64 0 -64 64v232q0 64 64 64zM313 404v232q0 20 -9 29t-29 9h-168q-20 0 -29 -9t-9 -29v-232q0 -20 9 -29t29 -9h168q20 0 29 9t9 29zM226 501l34 -63h26v-25h-41l-48 88h-45v-63h28v-25h-81v25h26v168h-26v25h127
q43 0 43 -43v-44q0 -43 -43 -43zM152 605v-78h72q10 0 14 3.5t4 14.5v42q0 11 -4 14.5t-14 3.5h-72z" />
    <glyph glyph-name="overscore" unicode="&#xaf;" horiz-adv-x="620" 
d="M182 826h256v-60h-256v60z" />
    <glyph glyph-name="degree" unicode="&#xb0;" horiz-adv-x="340" 
d="M220 488h-100q-48 0 -48 48v116q0 48 48 48h100q48 0 48 -48v-116q0 -48 -48 -48zM206 654h-72q-8 0 -11 -3t-3 -11v-92q0 -8 3 -11t11 -3h72q8 0 11 3t3 11v92q0 8 -3 11t-11 3z" />
    <glyph glyph-name="plusminus" unicode="&#xb1;" horiz-adv-x="532" 
d="M296 232h-60v158h-158v60h158v158h60v-158h158v-60h-158v-158zM78 122v60h376v-60h-376z" />
    <glyph glyph-name="twosuperior" unicode="&#xb2;" horiz-adv-x="356" 
d="M110 702h-58v18q0 49 20.5 69.5t69.5 20.5h79q49 0 69.5 -21t20.5 -69v-39q0 -28 -15 -41t-64 -31l-96 -35q-18 -6 -24.5 -11t-6.5 -14v-44h158v63h50v-118h-266v109q0 28 15 41t64 31l96 35q18 6 24.5 11t6.5 14v26q0 23 -7.5 30.5t-30.5 7.5h-67q-23 0 -30.5 -7.5
t-7.5 -30.5v-15z" />
    <glyph glyph-name="threesuperior" unicode="&#xb3;" horiz-adv-x="359" 
d="M42 556h58v-1q0 -32 7 -41.5t31 -9.5h76q24 0 31 9.5t7 43.5q0 33 -7 42.5t-31 9.5h-85v51h81q24 0 31 9t7 39t-7 39t-31 9h-68q-24 0 -31 -9t-7 -39v-4h-58v5q0 56 20.5 78.5t69.5 22.5h80q49 0 69.5 -22.5t20.5 -78.5q0 -57 -37 -75q41 -12 41 -79q0 -59 -20.5 -82
t-69.5 -23h-88q-49 0 -69.5 23t-20.5 82v1z" />
    <glyph glyph-name="acute" unicode="&#xb4;" horiz-adv-x="621" 
d="M401 910l-129 -144h-52l90 144h91z" />
    <glyph glyph-name="paragraph" unicode="&#xb6;" horiz-adv-x="803" 
d="M721 700v-62h-90v-638h-72v634h-72v-634h-72v280h-200q-140 0 -140 140v140q0 140 140 140h506z" />
    <glyph glyph-name="middot" unicode="&#xb7;" horiz-adv-x="256" 
d="M176 381v-102h-96v102h96z" />
    <glyph glyph-name="cedilla" unicode="&#xb8;" horiz-adv-x="589" 
d="M258 0h64v-56q0 -52 -18.5 -71t-69.5 -19h-58l-40 54h84q24 0 31 7t7 29v56z" />
    <glyph glyph-name="onesuperior" unicode="&#xb9;" horiz-adv-x="262" 
d="M163 498h71v-48h-204v48h75v252l-75 -24v50l86 34h47v-312z" />
    <glyph glyph-name="ordmasculine" unicode="&#xba;" horiz-adv-x="402" 
d="M152 700h98q90 0 90 -90v-171q0 -90 -90 -90h-98q-90 0 -90 90v171q0 90 90 90zM287 439v171q0 42 -42 42h-88q-42 0 -42 -42v-171q0 -42 42 -42h88q42 0 42 42zM70 282h262v-48h-262v48z" />
    <glyph glyph-name="guillemotright" unicode="&#xbb;" horiz-adv-x="438" 
d="M120 509l128 -188v-40l-128 -187h-72l141 207l-141 208h72zM270 509l128 -188v-40l-128 -187h-72l141 207l-141 208h72z" />
    <glyph glyph-name="onequarter" unicode="&#xbc;" horiz-adv-x="756" 
d="M234 340h-204v48h75v252l-75 -24v50l86 34h47v-312h71v-48zM506 700h58l-382 -700h-58zM717 99h-57v-51h57v-48h-180v48h66v51h-193l-8 44l203 217h55v-209h57v-52zM472 151h131v135z" />
    <glyph glyph-name="onehalf" unicode="&#xbd;" horiz-adv-x="782" 
d="M234 340h-204v48h75v252l-75 -24v50l86 34h47v-312h71v-48zM506 700h58l-382 -700h-58zM689 118h50v-118h-266v109q0 28 15 41t64 31l96 35q18 6 24.5 11t6.5 14v26q0 23 -7.5 30.5t-30.5 7.5h-67q-23 0 -30.5 -7.5t-7.5 -30.5v-15h-58v18q0 49 20.5 69.5t69.5 20.5h79
q49 0 69.5 -21t20.5 -69v-39q0 -28 -15 -41t-64 -31l-96 -35q-18 -6 -24.5 -11t-6.5 -14v-44h158v63z" />
    <glyph glyph-name="threequarters" unicode="&#xbe;" horiz-adv-x="853" 
d="M310 445q0 -59 -20.5 -82t-69.5 -23h-88q-49 0 -69.5 23t-20.5 82v1h58v-1q0 -32 7 -41.5t31 -9.5h76q24 0 31 9.5t7 43.5q0 33 -7 42.5t-31 9.5h-85v51h81q24 0 31 9t7 39t-7 39t-31 9h-68q-24 0 -31 -9t-7 -39v-4h-58v5q0 56 20.5 78.5t69.5 22.5h80q49 0 69.5 -22.5
t20.5 -78.5q0 -57 -37 -75q41 -12 41 -79zM603 700h58l-382 -700h-58zM814 99h-57v-51h57v-48h-180v48h66v51h-193l-8 44l203 217h55v-209h57v-52zM569 151h131v135z" />
    <glyph glyph-name="questiondown" unicode="&#xbf;" horiz-adv-x="581" 
d="M374 431h-72v109h72v-109zM399 -160h-199q-140 0 -140 140v59q0 51 34 82q34 33 110 70l26 13q41 20 56.5 34.5t15.5 31.5v82h72v-80q0 -48 -31 -76q-34 -29 -113 -68l-26 -13q-43 -21 -57.5 -36.5t-14.5 -39.5v-61q0 -39 16.5 -55.5t55.5 -16.5h191q39 0 55.5 16.5
t16.5 55.5v71h72v-69q0 -140 -140 -140z" />
    <glyph glyph-name="Agrave" unicode="&#xc0;" horiz-adv-x="774" 
d="M439 766h-52l-129 144h91zM662 62h90v-62h-262v62h98l-52 144h-300l-52 -144h96v-62h-258v62h90l211 576h-84v62h189zM259 272h253l-126 353z" />
    <glyph glyph-name="Aacute" unicode="&#xc1;" horiz-adv-x="774" 
d="M662 62h90v-62h-262v62h98l-52 144h-300l-52 -144h96v-62h-258v62h90l211 576h-84v62h189zM259 272h253l-126 353zM504 910l-129 -144h-52l90 144h91z" />
    <glyph glyph-name="Acircumflex" unicode="&#xc2;" horiz-adv-x="774" 
d="M381 848l-79 -82h-73l116 120h72l116 -120h-73zM662 62h90v-62h-262v62h98l-52 144h-300l-52 -144h96v-62h-258v62h90l211 576h-84v62h189zM259 272h253l-126 353z" />
    <glyph glyph-name="Atilde" unicode="&#xc3;" horiz-adv-x="774" 
d="M277 797v-21h-50v17q0 40 22.5 63t59.5 23q40 0 78 -31q40 -31 65 -31q33 0 33 33v21h50v-17q0 -40 -22.5 -63t-59.5 -23q-42 0 -82 31q-38 31 -61 31q-33 0 -33 -33zM662 62h90v-62h-262v62h98l-52 144h-300l-52 -144h96v-62h-258v62h90l211 576h-84v62h189zM259 272
h253l-126 353z" />
    <glyph glyph-name="Adieresis" unicode="&#xc4;" horiz-adv-x="774" 
d="M662 62h90v-62h-262v62h98l-52 144h-300l-52 -144h96v-62h-258v62h90l211 576h-84v62h189zM259 272h253l-126 353zM335 866v-100h-78v100h78zM505 866v-100h-78v100h78z" />
    <glyph glyph-name="Aring" unicode="&#xc5;" horiz-adv-x="774" 
d="M407 766h-52q-32 0 -46 14t-14 46v38q0 32 14 46t46 14h52q32 0 46 -14t14 -46v-38q0 -32 -14 -46t-46 -14zM343 872v-54q0 -10 10 -10h56q10 0 10 10v54q0 10 -10 10h-56q-10 0 -10 -10zM662 62h90v-62h-262v62h98l-52 144h-300l-52 -144h96v-62h-258v62h90l211 576h-84
v62h189zM259 272h253l-126 353z" />
    <glyph glyph-name="AE" unicode="&#xc6;" horiz-adv-x="1053" 
d="M343 700h643v-180h-68v116h-303v-246h299v-64h-299v-262h303v116h68v-180h-533v62h90v168h-267l-92 -168h90v-62h-262v62h92l319 576h-80v62zM312 296h231v338h-46z" />
    <glyph glyph-name="Ccedilla" unicode="&#xc7;" horiz-adv-x="634" 
d="M566 484h-72v78q0 39 -16.5 55.5t-55.5 16.5h-200q-39 0 -55.5 -16.5t-16.5 -55.5v-424q0 -39 16.5 -55.5t55.5 -16.5h200q39 0 55.5 16.5t16.5 55.5v78h72v-76q0 -140 -140 -140h-64v-56q0 -52 -18.5 -71t-69.5 -19h-58l-40 54h84q24 0 31 7t7 29v56h-80
q-140 0 -140 140v420q0 140 140 140h208q140 0 140 -140v-76z" />
    <glyph glyph-name="Egrave" unicode="&#xc8;" 
d="M411 766h-52l-129 144h91zM583 520h-68v116h-297v-246h293v-64h-293v-262h297v116h68v-180h-537v62h100v576h-100v62h537v-180z" />
    <glyph glyph-name="Eacute" unicode="&#xc9;" 
d="M583 520h-68v116h-297v-246h293v-64h-293v-262h297v116h68v-180h-537v62h100v576h-100v62h537v-180zM476 910l-129 -144h-52l90 144h91z" />
    <glyph glyph-name="Ecircumflex" unicode="&#xca;" 
d="M353 848l-79 -82h-73l116 120h72l116 -120h-73zM583 520h-68v116h-297v-246h293v-64h-293v-262h297v116h68v-180h-537v62h100v576h-100v62h537v-180z" />
    <glyph glyph-name="Edieresis" unicode="&#xcb;" 
d="M583 520h-68v116h-297v-246h293v-64h-293v-262h297v116h68v-180h-537v62h100v576h-100v62h537v-180zM307 866v-100h-78v100h78zM477 866v-100h-78v100h78z" />
    <glyph glyph-name="Igrave" unicode="&#xcc;" horiz-adv-x="388" 
d="M252 766h-52l-129 144h91zM338 638h-108v-576h108v-62h-288v62h108v576h-108v62h288v-62z" />
    <glyph glyph-name="Iacute" unicode="&#xcd;" horiz-adv-x="388" 
d="M338 638h-108v-576h108v-62h-288v62h108v576h-108v62h288v-62zM317 910l-129 -144h-52l90 144h91z" />
    <glyph glyph-name="Icircumflex" unicode="&#xce;" horiz-adv-x="388" 
d="M194 848l-79 -82h-73l116 120h72l116 -120h-73zM50 700h288v-62h-108v-576h108v-62h-288v62h108v576h-108v62z" />
    <glyph glyph-name="Idieresis" unicode="&#xcf;" horiz-adv-x="388" 
d="M338 638h-108v-576h108v-62h-288v62h108v576h-108v62h288v-62zM148 866v-100h-78v100h78zM318 866v-100h-78v100h78z" />
    <glyph glyph-name="Eth" unicode="&#xd0;" horiz-adv-x="707" 
d="M46 638v62h443q140 0 140 -140v-420q0 -140 -140 -140h-443v62h100v259h-90v66h90v251h-100zM557 138v424q0 39 -16.5 55.5t-55.5 16.5h-267v-247h90v-66h-90v-255h267q39 0 55.5 16.5t16.5 55.5z" />
    <glyph glyph-name="Ntilde" unicode="&#xd1;" horiz-adv-x="788" 
d="M288 797v-21h-50v17q0 40 22.5 63t59.5 23q40 0 78 -31q40 -31 65 -31q33 0 33 33v21h50v-17q0 -40 -22.5 -63t-59.5 -23q-42 0 -82 31q-38 31 -61 31q-33 0 -33 -33zM746 700v-62h-94v-638h-69l-371 603v-541h112v-62h-278v62h100v576h-100v62h180l360 -584v522h-112v62
h272z" />
    <glyph glyph-name="Ograve" unicode="&#xd2;" horiz-adv-x="657" 
d="M439 0q140 0 140 140v420q0 140 -140 140h-221q-140 0 -140 -140v-420q0 -140 140 -140h221zM150 562q0 39 16.5 55.5t55.5 16.5h213q39 0 55.5 -16.5t16.5 -55.5v-424q0 -39 -16.5 -55.5t-55.5 -16.5h-213q-39 0 -55.5 16.5t-16.5 55.5v424zM335 766l-129 144h91
l90 -144h-52z" />
    <glyph glyph-name="Oacute" unicode="&#xd3;" horiz-adv-x="657" 
d="M439 0h-221q-140 0 -140 140v420q0 140 140 140h221q140 0 140 -140v-420q0 -140 -140 -140zM150 562v-424q0 -39 16.5 -55.5t55.5 -16.5h213q39 0 55.5 16.5t16.5 55.5v424q0 39 -16.5 55.5t-55.5 16.5h-213q-39 0 -55.5 -16.5t-16.5 -55.5zM452 910l-129 -144h-52
l90 144h91z" />
    <glyph glyph-name="Ocircumflex" unicode="&#xd4;" horiz-adv-x="657" 
d="M250 766h-73l116 120h72l116 -120h-73l-79 82zM439 0q140 0 140 140v420q0 140 -140 140h-221q-140 0 -140 -140v-420q0 -140 140 -140h221zM150 562q0 39 16.5 55.5t55.5 16.5h213q39 0 55.5 -16.5t16.5 -55.5v-424q0 -39 -16.5 -55.5t-55.5 -16.5h-213
q-39 0 -55.5 16.5t-16.5 55.5v424z" />
    <glyph glyph-name="Otilde" unicode="&#xd5;" horiz-adv-x="657" 
d="M225 776h-50v17q0 40 22.5 63t59.5 23q40 0 78 -31q40 -31 65 -31q33 0 33 33v21h50v-17q0 -40 -22.5 -63t-59.5 -23q-42 0 -82 31q-38 31 -61 31q-33 0 -33 -33v-21zM439 0q140 0 140 140v420q0 140 -140 140h-221q-140 0 -140 -140v-420q0 -140 140 -140h221zM150 562
q0 39 16.5 55.5t55.5 16.5h213q39 0 55.5 -16.5t16.5 -55.5v-424q0 -39 -16.5 -55.5t-55.5 -16.5h-213q-39 0 -55.5 16.5t-16.5 55.5v424z" />
    <glyph glyph-name="Odieresis" unicode="&#xd6;" horiz-adv-x="657" 
d="M439 0h-221q-140 0 -140 140v420q0 140 140 140h221q140 0 140 -140v-420q0 -140 -140 -140zM150 562v-424q0 -39 16.5 -55.5t55.5 -16.5h213q39 0 55.5 16.5t16.5 55.5v424q0 39 -16.5 55.5t-55.5 16.5h-213q-39 0 -55.5 -16.5t-16.5 -55.5zM283 866v-100h-78v100h78z
M453 866v-100h-78v100h78z" />
    <glyph glyph-name="multiply" unicode="&#xd7;" horiz-adv-x="532" 
d="M439 466l-131 -132l131 -131l-42 -42l-130 130l-131 -132l-42 42l131 132l-131 131l42 42l130 -130l131 132z" />
    <glyph glyph-name="Oslash" unicode="&#xd8;" horiz-adv-x="657" 
d="M477 760h66l-32 -72q68 -29 68 -128v-420q0 -140 -140 -140h-221h-15l-27 -60h-66l33 74q-65 29 -65 126v420q0 140 140 140h221h11zM150 562v-424q0 -44 22 -60l249 556h-199q-39 0 -55.5 -16.5t-16.5 -55.5zM507 138v424q0 46 -25 62l-250 -558h203q39 0 55.5 16.5
t16.5 55.5z" />
    <glyph glyph-name="Ugrave" unicode="&#xd9;" horiz-adv-x="758" 
d="M437 766h-52l-129 144h91zM716 700v-62h-92v-498q0 -140 -140 -140h-210q-140 0 -140 140v498h-92v62h264v-62h-100v-500q0 -39 16.5 -55.5t55.5 -16.5h202q39 0 55.5 16.5t16.5 55.5v500h-100v62h264z" />
    <glyph glyph-name="Uacute" unicode="&#xda;" horiz-adv-x="758" 
d="M716 700v-62h-92v-498q0 -140 -140 -140h-210q-140 0 -140 140v498h-92v62h264v-62h-100v-500q0 -39 16.5 -55.5t55.5 -16.5h202q39 0 55.5 16.5t16.5 55.5v500h-100v62h264zM502 910l-129 -144h-52l90 144h91z" />
    <glyph glyph-name="Ucircumflex" unicode="&#xdb;" horiz-adv-x="758" 
d="M379 848l-79 -82h-73l116 120h72l116 -120h-73zM716 700v-62h-92v-498q0 -140 -140 -140h-210q-140 0 -140 140v498h-92v62h264v-62h-100v-500q0 -39 16.5 -55.5t55.5 -16.5h202q39 0 55.5 16.5t16.5 55.5v500h-100v62h264z" />
    <glyph glyph-name="Udieresis" unicode="&#xdc;" horiz-adv-x="758" 
d="M716 700v-62h-92v-498q0 -140 -140 -140h-210q-140 0 -140 140v498h-92v62h264v-62h-100v-500q0 -39 16.5 -55.5t55.5 -16.5h202q39 0 55.5 16.5t16.5 55.5v500h-100v62h264zM333 866v-100h-78v100h78zM503 866v-100h-78v100h78z" />
    <glyph glyph-name="Yacute" unicode="&#xdd;" horiz-adv-x="724" 
d="M613 638l-215 -390v-186h116v-62h-304v62h116v186l-215 390h-87v62h256v-62h-91l174 -322l174 322h-91v62h254v-62h-87zM486 910l-129 -144h-52l90 144h91z" />
    <glyph glyph-name="Thorn" unicode="&#xde;" horiz-adv-x="674" 
d="M222 638v-84h256q140 0 140 -140v-122q0 -140 -140 -140h-256v-90h116v-62h-288v62h100v576h-100v62h288v-62h-116zM546 290v126q0 39 -16.5 55.5t-55.5 16.5h-252v-270h252q39 0 55.5 16.5t16.5 55.5z" />
    <glyph glyph-name="germandbls" unicode="&#xdf;" horiz-adv-x="602" 
d="M464 377q43 -8 61.5 -47.5t18.5 -127.5q0 -112 -31.5 -157t-104.5 -45h-136v62h134q39 0 54 27q16 28 16 115t-15 114q-15 28 -55 28h-114v60h106q39 0 54 26q16 25 16 105t-16 105q-15 26 -54 26h-138q-37 0 -53.5 -16.5t-16.5 -53.5v-598h-154v62h86v532q0 136 136 136
h142q73 0 104.5 -42.5t31.5 -148.5q0 -80 -16 -116t-56 -46z" />
    <glyph glyph-name="agrave" unicode="&#xe0;" horiz-adv-x="588" 
d="M336 606h-52l-129 144h91zM470 58h84v-58h-152v74q-36 -42 -79.5 -60t-113.5 -18q-84 0 -120.5 37.5t-36.5 122.5q0 82 31 113t105 39q93 11 214 15v87q0 38 -16 54t-54 16h-124q-38 0 -54 -16t-16 -54v-15h-68v9q0 136 136 136h128q136 0 136 -136v-346zM402 121v155
l-212 -24q-41 -5 -55.5 -24t-14.5 -72q0 -57 19 -78.5t71 -21.5q62 0 102 15q39 14 90 50z" />
    <glyph glyph-name="aacute" unicode="&#xe1;" horiz-adv-x="588" 
d="M470 58h84v-58h-152v74q-36 -42 -79.5 -60t-113.5 -18q-84 0 -120.5 37.5t-36.5 122.5q0 82 31 113t105 39q93 11 214 15v87q0 38 -16 54t-54 16h-124q-38 0 -54 -16t-16 -54v-15h-68v9q0 136 136 136h128q136 0 136 -136v-346zM402 121v155l-212 -24q-41 -5 -55.5 -24
t-14.5 -72q0 -57 19 -78.5t71 -21.5q62 0 102 15q39 14 90 50zM401 750l-129 -144h-52l90 144h91z" />
    <glyph glyph-name="acircumflex" unicode="&#xe2;" horiz-adv-x="588" 
d="M278 688l-79 -82h-73l116 120h72l116 -120h-73zM470 58h84v-58h-152v74q-36 -42 -79.5 -60t-113.5 -18q-84 0 -120.5 37.5t-36.5 122.5q0 82 31 113t105 39q93 11 214 15v87q0 38 -16 54t-54 16h-124q-38 0 -54 -16t-16 -54v-15h-68v9q0 136 136 136h128q136 0 136 -136
v-346zM402 121v155l-212 -24q-41 -5 -55.5 -24t-14.5 -72q0 -57 19 -78.5t71 -21.5q62 0 102 15q39 14 90 50z" />
    <glyph glyph-name="atilde" unicode="&#xe3;" horiz-adv-x="588" 
d="M174 637v-21h-50v17q0 40 22.5 63t59.5 23q40 0 78 -31q40 -31 65 -31q33 0 33 33v21h50v-17q0 -40 -22.5 -63t-59.5 -23q-42 0 -82 31q-38 31 -61 31q-33 0 -33 -33zM470 58h84v-58h-152v74q-36 -42 -79.5 -60t-113.5 -18q-84 0 -120.5 37.5t-36.5 122.5q0 82 31 113
t105 39q93 11 214 15v87q0 38 -16 54t-54 16h-124q-38 0 -54 -16t-16 -54v-15h-68v9q0 136 136 136h128q136 0 136 -136v-346zM402 121v155l-212 -24q-41 -5 -55.5 -24t-14.5 -72q0 -57 19 -78.5t71 -21.5q62 0 102 15q39 14 90 50z" />
    <glyph glyph-name="adieresis" unicode="&#xe4;" horiz-adv-x="588" 
d="M470 58h84v-58h-152v74q-36 -42 -79.5 -60t-113.5 -18q-84 0 -120.5 37.5t-36.5 122.5q0 82 31 113t105 39q93 11 214 15v87q0 38 -16 54t-54 16h-124q-38 0 -54 -16t-16 -54v-15h-68v9q0 136 136 136h128q136 0 136 -136v-346zM402 121v155l-212 -24q-41 -5 -55.5 -24
t-14.5 -72q0 -57 19 -78.5t71 -21.5q62 0 102 15q39 14 90 50zM232 706v-100h-78v100h78zM402 706v-100h-78v100h78z" />
    <glyph glyph-name="aring" unicode="&#xe5;" horiz-adv-x="588" 
d="M304 606h-52q-32 0 -46 14t-14 46v38q0 32 14 46t46 14h52q32 0 46 -14t14 -46v-38q0 -32 -14 -46t-46 -14zM240 712v-54q0 -10 10 -10h56q10 0 10 10v54q0 10 -10 10h-56q-10 0 -10 -10zM470 58h84v-58h-152v74q-36 -42 -79.5 -60t-113.5 -18q-84 0 -120.5 37.5
t-36.5 122.5q0 82 31 113t105 39q93 11 214 15v87q0 38 -16 54t-54 16h-124q-38 0 -54 -16t-16 -54v-15h-68v9q0 136 136 136h128q136 0 136 -136v-346zM402 121v155l-212 -24q-41 -5 -55.5 -24t-14.5 -72q0 -57 19 -78.5t71 -21.5q62 0 102 15q39 14 90 50z" />
    <glyph glyph-name="ae" unicode="&#xe6;" horiz-adv-x="874" 
d="M816 256h-346v-126q0 -38 16 -54t54 -16h138q38 0 54 16t16 54v39h68v-33q0 -136 -136 -136h-142q-106 0 -129 81q-64 -85 -200 -85q-84 0 -120.5 37.5t-36.5 122.5q0 82 31 113t105 39q93 11 214 15v87q0 38 -16 54t-54 16h-124q-38 0 -54 -16t-16 -54v-15h-68v9
q0 136 136 136h128q65 0 102 -43q37 43 102 43h142q136 0 136 -136v-148zM470 312h278v98q0 38 -16 54t-54 16h-138q-38 0 -54 -16t-16 -54v-98zM402 121v155l-212 -24q-41 -5 -55.5 -24t-14.5 -72q0 -57 19 -78.5t71 -21.5q62 0 102 15q39 14 90 50z" />
    <glyph glyph-name="ccedilla" unicode="&#xe7;" horiz-adv-x="526" 
d="M470 368h-68v40q0 38 -16 54t-54 16h-132q-38 0 -54 -16t-16 -54v-276q0 -38 16 -54t54 -16h132q38 0 54 16t16 54v40h68v-36q0 -136 -136 -136h-23v-56q0 -52 -18.5 -71t-69.5 -19h-58l-40 54h84q24 0 31 7t7 29v56h-49q-136 0 -136 136v268q0 136 136 136h136
q136 0 136 -136v-36z" />
    <glyph glyph-name="egrave" unicode="&#xe8;" horiz-adv-x="534" 
d="M327 606h-52l-129 144h91zM476 256h-346v-126q0 -38 16 -54t54 -16h138q38 0 54 16t16 54v39h68v-33q0 -136 -136 -136h-142q-136 0 -136 136v268q0 136 136 136h142q136 0 136 -136v-148zM338 480h-138q-38 0 -54 -16t-16 -54v-98h278v98q0 38 -16 54t-54 16z" />
    <glyph glyph-name="eacute" unicode="&#xe9;" horiz-adv-x="534" 
d="M476 256h-346v-126q0 -38 16 -54t54 -16h138q38 0 54 16t16 54v39h68v-33q0 -136 -136 -136h-142q-136 0 -136 136v268q0 136 136 136h142q136 0 136 -136v-148zM338 480h-138q-38 0 -54 -16t-16 -54v-98h278v98q0 38 -16 54t-54 16zM392 750l-129 -144h-52l90 144h91z
" />
    <glyph glyph-name="ecircumflex" unicode="&#xea;" horiz-adv-x="534" 
d="M269 688l-79 -82h-73l116 120h72l116 -120h-73zM476 256h-346v-126q0 -38 16 -54t54 -16h138q38 0 54 16t16 54v39h68v-33q0 -136 -136 -136h-142q-136 0 -136 136v268q0 136 136 136h142q136 0 136 -136v-148zM338 480h-138q-38 0 -54 -16t-16 -54v-98h278v98
q0 38 -16 54t-54 16z" />
    <glyph glyph-name="edieresis" unicode="&#xeb;" horiz-adv-x="534" 
d="M476 256h-346v-126q0 -38 16 -54t54 -16h138q38 0 54 16t16 54v39h68v-33q0 -136 -136 -136h-142q-136 0 -136 136v268q0 136 136 136h142q136 0 136 -136v-148zM338 480h-138q-38 0 -54 -16t-16 -54v-98h278v98q0 38 -16 54t-54 16zM223 706v-100h-78v100h78zM393 706
v-100h-78v100h78z" />
    <glyph glyph-name="igrave" unicode="&#xec;" horiz-adv-x="322" 
d="M199 586h-52l-129 144h91zM198 58h86v-58h-244v58h90v424h-90v58h158v-482z" />
    <glyph glyph-name="iacute" unicode="&#xed;" horiz-adv-x="322" 
d="M275 730l-129 -144h-52l90 144h91zM198 58h86v-58h-244v58h90v424h-90v58h158v-482z" />
    <glyph glyph-name="icircumflex" unicode="&#xee;" horiz-adv-x="322" 
d="M162 668l-79 -82h-73l116 120h72l116 -120h-73zM198 540v-482h86v-58h-244v58h90v424h-90v58h158z" />
    <glyph glyph-name="idieresis" unicode="&#xef;" horiz-adv-x="322" 
d="M116 716v-100h-78v100h78zM208 716h78v-100h-78v100zM198 540v-482h86v-58h-244v58h90v424h-90v58h158z" />
    <glyph glyph-name="eth" unicode="&#xf0;" horiz-adv-x="552" 
d="M395 748l-68 -66l23 -6q73 -19 106 -45q34 -25 34 -85v-410q0 -136 -136 -136h-156q-136 0 -136 136v246q0 71 38 103.5t124 32.5q48 0 86 -12q37 -10 58 -25q26 -16 54 -41v106q0 29 -15.5 42.5t-58.5 27.5l-68 21l-61 -59h-70l78 75l-102 31v52l147 -39l53 51h70z
M422 132v259q-51 36 -90 50q-41 15 -107 15q-54 0 -74.5 -15.5t-20.5 -54.5v-254q0 -38 16 -54t54 -16h152q38 0 54 16t16 54z" />
    <glyph glyph-name="ntilde" unicode="&#xf1;" horiz-adv-x="656" 
d="M231 637v-21h-50v17q0 40 22.5 63t59.5 23q40 0 78 -31q40 -31 65 -31q33 0 33 33v21h50v-17q0 -40 -22.5 -63t-59.5 -23q-42 0 -82 31q-38 31 -61 31q-33 0 -33 -33zM538 58h84v-58h-238v58h86v355q0 39 -19.5 54.5t-67.5 15.5q-59 0 -100 -15q-37 -14 -89 -50v-360h86
v-58h-244v58h90v424h-90v58h158v-73q49 41 86 59q38 19 104 19q80 0 117 -33t37 -103v-351z" />
    <glyph glyph-name="ograve" unicode="&#xf2;" horiz-adv-x="545" 
d="M198 540q-136 0 -136 -136v-268q0 -136 136 -136h149q136 0 136 136v268q0 136 -136 136h-149zM415 132q0 -38 -16.5 -54t-53.5 -16h-145q-38 0 -54 16t-16 54v276q0 38 16 54t54 16h145q37 0 53.5 -16t16.5 -54v-276zM279 606l-129 144h91l90 -144h-52z" />
    <glyph glyph-name="oacute" unicode="&#xf3;" horiz-adv-x="545" 
d="M198 540h149q136 0 136 -136v-268q0 -136 -136 -136h-149q-136 0 -136 136v268q0 136 136 136zM415 132v276q0 38 -16.5 54t-53.5 16h-145q-38 0 -54 -16t-16 -54v-276q0 -38 16 -54t54 -16h145q37 0 53.5 16t16.5 54zM396 750l-129 -144h-52l90 144h91z" />
    <glyph glyph-name="ocircumflex" unicode="&#xf4;" horiz-adv-x="545" 
d="M194 606h-73l116 120h72l116 -120h-73l-79 82zM198 540q-136 0 -136 -136v-268q0 -136 136 -136h149q136 0 136 136v268q0 136 -136 136h-149zM415 132q0 -38 -16.5 -54t-53.5 -16h-145q-38 0 -54 16t-16 54v276q0 38 16 54t54 16h145q37 0 53.5 -16t16.5 -54v-276z" />
    <glyph glyph-name="otilde" unicode="&#xf5;" horiz-adv-x="545" 
d="M169 616h-50v17q0 40 22.5 63t59.5 23q40 0 78 -31q40 -31 65 -31q33 0 33 33v21h50v-17q0 -40 -22.5 -63t-59.5 -23q-42 0 -82 31q-38 31 -61 31q-33 0 -33 -33v-21zM198 540q-136 0 -136 -136v-268q0 -136 136 -136h149q136 0 136 136v268q0 136 -136 136h-149z
M415 132q0 -38 -16.5 -54t-53.5 -16h-145q-38 0 -54 16t-16 54v276q0 38 16 54t54 16h145q37 0 53.5 -16t16.5 -54v-276z" />
    <glyph glyph-name="odieresis" unicode="&#xf6;" horiz-adv-x="545" 
d="M198 540h149q136 0 136 -136v-268q0 -136 -136 -136h-149q-136 0 -136 136v268q0 136 136 136zM415 132v276q0 38 -16.5 54t-53.5 16h-145q-38 0 -54 -16t-16 -54v-276q0 -38 16 -54t54 -16h145q37 0 53.5 16t16.5 54zM227 706v-100h-78v100h78zM397 706v-100h-78v100h78
z" />
    <glyph glyph-name="divide" unicode="&#xf7;" horiz-adv-x="532" 
d="M310 569v-98h-88v98h88zM78 329v62h376v-62h-376zM310 249v-98h-88v98h88z" />
    <glyph glyph-name="oslash" unicode="&#xf8;" horiz-adv-x="545" 
d="M377 600h62l-28 -70q72 -26 72 -126v-268q0 -136 -136 -136h-149h-4l-24 -60h-62l28 69q-74 26 -74 127v268q0 136 136 136h149h6zM130 408v-276q0 -50 30 -63l167 409h-127q-38 0 -54 -16t-16 -54zM415 132v276q0 50 -28 63l-167 -409h125q37 0 53.5 16t16.5 54z" />
    <glyph glyph-name="ugrave" unicode="&#xf9;" 
d="M369 606h-52l-129 144h91zM530 58h86v-58h-154v73q-48 -41 -87 -60q-37 -18 -103 -18q-80 0 -117 33t-37 103v351h-84v58h152v-413q0 -39 19.5 -54.5t67.5 -15.5q59 0 100 15q37 14 89 50v360h-100v58h168v-482z" />
    <glyph glyph-name="uacute" unicode="&#xfa;" 
d="M530 58h86v-58h-154v73q-48 -41 -87 -60q-37 -18 -103 -18q-80 0 -117 33t-37 103v351h-84v58h152v-413q0 -39 19.5 -54.5t67.5 -15.5q59 0 100 15q37 14 89 50v360h-100v58h168v-482zM434 750l-129 -144h-52l90 144h91z" />
    <glyph glyph-name="ucircumflex" unicode="&#xfb;" 
d="M311 688l-79 -82h-73l116 120h72l116 -120h-73zM530 58h86v-58h-154v73q-48 -41 -87 -60q-37 -18 -103 -18q-80 0 -117 33t-37 103v351h-84v58h152v-413q0 -39 19.5 -54.5t67.5 -15.5q59 0 100 15q37 14 89 50v360h-100v58h168v-482z" />
    <glyph glyph-name="udieresis" unicode="&#xfc;" 
d="M530 58h86v-58h-154v73q-48 -41 -87 -60q-37 -18 -103 -18q-80 0 -117 33t-37 103v351h-84v58h152v-413q0 -39 19.5 -54.5t67.5 -15.5q59 0 100 15q37 14 89 50v360h-100v58h168v-482zM265 706v-100h-78v100h78zM435 706v-100h-78v100h78z" />
    <glyph glyph-name="yacute" unicode="&#xfd;" horiz-adv-x="590" 
d="M574 482h-65l-225 -580h58v-62h-206v62h83l36 98l-175 482h-64v58h204v-58h-71l140 -405l152 405h-69v58h202v-58zM419 750l-129 -144h-52l90 144h91z" />
    <glyph glyph-name="thorn" unicode="&#xfe;" horiz-adv-x="616" 
d="M392 544q86 0 124 -32.5t38 -103.5v-276q0 -71 -38 -103.5t-124 -32.5q-48 0 -87 11q-38 12 -58 25q-22 15 -53 42v-176h106v-58h-264v58h90v774h-90v58h158v-264q25 22 53 41q55 37 145 37zM486 128v284q0 39 -20.5 54.5t-74.5 15.5q-67 0 -107 -15q-39 -14 -90 -50
v-294q51 -36 90 -50q40 -15 107 -15q54 0 74.5 15.5t20.5 54.5z" />
    <glyph glyph-name="ydieresis" unicode="&#xff;" horiz-adv-x="590" 
d="M574 482h-65l-225 -580h58v-62h-206v62h83l36 98l-175 482h-64v58h204v-58h-71l140 -405l152 405h-69v58h202v-58zM250 706v-100h-78v100h78zM420 706v-100h-78v100h78z" />
    <glyph glyph-name="Amacron" unicode="&#x100;" horiz-adv-x="774" 
d="M505 826v-60h-256v60h256zM662 62h90v-62h-262v62h98l-52 144h-300l-52 -144h96v-62h-258v62h90l211 576h-84v62h189zM259 272h253l-126 353z" />
    <glyph glyph-name="amacron" unicode="&#x101;" horiz-adv-x="588" 
d="M402 666v-60h-256v60h256zM470 58h84v-58h-152v74q-36 -42 -79.5 -60t-113.5 -18q-84 0 -120.5 37.5t-36.5 122.5q0 82 31 113t105 39q93 11 214 15v87q0 38 -16 54t-54 16h-124q-38 0 -54 -16t-16 -54v-15h-68v9q0 136 136 136h128q136 0 136 -136v-346zM402 121v155
l-212 -24q-41 -5 -55.5 -24t-14.5 -72q0 -57 19 -78.5t71 -21.5q62 0 102 15q39 14 90 50z" />
    <glyph glyph-name="Abreve" unicode="&#x102;" horiz-adv-x="774" 
d="M416 766h-70q-64 0 -64 64v51h52v-50q0 -11 4 -14.5t14 -3.5h58q10 0 14 3.5t4 14.5v50h52v-51q0 -64 -64 -64zM662 62h90v-62h-262v62h98l-52 144h-300l-52 -144h96v-62h-258v62h90l211 576h-84v62h189zM259 272h253l-126 353z" />
    <glyph glyph-name="abreve" unicode="&#x103;" horiz-adv-x="588" 
d="M313 606h-70q-64 0 -64 64v51h52v-50q0 -11 3.5 -14.5t14.5 -3.5h58q11 0 14.5 3.5t3.5 14.5v50h52v-51q0 -64 -64 -64zM470 58h84v-58h-152v74q-36 -42 -79.5 -60t-113.5 -18q-84 0 -120.5 37.5t-36.5 122.5q0 82 31 113t105 39q93 11 214 15v87q0 38 -16 54t-54 16
h-124q-38 0 -54 -16t-16 -54v-15h-68v9q0 136 136 136h128q136 0 136 -136v-346zM402 121v155l-212 -24q-41 -5 -55.5 -24t-14.5 -72q0 -57 19 -78.5t71 -21.5q62 0 102 15q39 14 90 50z" />
    <glyph glyph-name="Aogonek" unicode="&#x104;" horiz-adv-x="774" 
d="M752 62v-62h-84q-33 -25 -45.5 -39.5t-12.5 -32.5q0 -34 42 -34h39v-54h-40q-109 0 -109 69q0 53 68 91h-120v62h98l-52 144h-300l-52 -144h96v-62h-258v62h90l211 576h-84v62h189l234 -638h90zM259 272h253l-126 353z" />
    <glyph glyph-name="aogonek" unicode="&#x105;" horiz-adv-x="588" 
d="M538 -106h39v-54h-40q-109 0 -109 69q0 53 68 91h-94v74q-36 -42 -79.5 -60t-113.5 -18q-84 0 -120.5 37.5t-36.5 122.5q0 82 31 113t105 39q93 11 214 15v87q0 38 -16 54t-54 16h-124q-38 0 -54 -16t-16 -54v-15h-68v9q0 136 136 136h128q136 0 136 -136v-346h84v-58
q-33 -25 -45.5 -39.5t-12.5 -32.5q0 -34 42 -34zM402 121v155l-212 -24q-41 -5 -55.5 -24t-14.5 -72q0 -57 19 -78.5t71 -21.5q62 0 102 15q39 14 90 50z" />
    <glyph glyph-name="Cacute" unicode="&#x106;" horiz-adv-x="634" 
d="M426 0h-208q-140 0 -140 140v420q0 140 140 140h208q140 0 140 -140v-76h-72v78q0 39 -16.5 55.5t-55.5 16.5h-200q-39 0 -55.5 -16.5t-16.5 -55.5v-424q0 -39 16.5 -55.5t55.5 -16.5h200q39 0 55.5 16.5t16.5 55.5v78h72v-76q0 -140 -140 -140zM453 910l-129 -144h-52
l90 144h91z" />
    <glyph glyph-name="cacute" unicode="&#x107;" horiz-adv-x="526" 
d="M198 540h136q136 0 136 -136v-36h-68v40q0 38 -16 54t-54 16h-132q-38 0 -54 -16t-16 -54v-276q0 -38 16 -54t54 -16h132q38 0 54 16t16 54v40h68v-36q0 -136 -136 -136h-136q-136 0 -136 136v268q0 136 136 136zM391 750l-129 -144h-52l90 144h91z" />
    <glyph glyph-name="Cdotaccent" unicode="&#x10a;" horiz-adv-x="634" 
d="M426 0h-208q-140 0 -140 140v420q0 140 140 140h208q140 0 140 -140v-76h-72v78q0 39 -16.5 55.5t-55.5 16.5h-200q-39 0 -55.5 -16.5t-16.5 -55.5v-424q0 -39 16.5 -55.5t55.5 -16.5h200q39 0 55.5 16.5t16.5 55.5v78h72v-76q0 -140 -140 -140zM370 860v-94h-80v94h80z
" />
    <glyph glyph-name="cdotaccent" unicode="&#x10b;" horiz-adv-x="526" 
d="M198 540h136q136 0 136 -136v-36h-68v40q0 38 -16 54t-54 16h-132q-38 0 -54 -16t-16 -54v-276q0 -38 16 -54t54 -16h132q38 0 54 16t16 54v40h68v-36q0 -136 -136 -136h-136q-136 0 -136 136v268q0 136 136 136zM308 700v-94h-80v94h80z" />
    <glyph glyph-name="Ccaron" unicode="&#x10c;" horiz-adv-x="634" 
d="M426 0q140 0 140 140v76h-72v-78q0 -39 -16.5 -55.5t-55.5 -16.5h-200q-39 0 -55.5 16.5t-16.5 55.5v424q0 39 16.5 55.5t55.5 16.5h200q39 0 55.5 -16.5t16.5 -55.5v-78h72v76q0 140 -140 140h-208q-140 0 -140 -140v-420q0 -140 140 -140h208zM294 766l-114 120h70
l80 -82l80 82h70l-114 -120h-72z" />
    <glyph glyph-name="ccaron" unicode="&#x10d;" horiz-adv-x="526" 
d="M198 540q-136 0 -136 -136v-268q0 -136 136 -136h136q136 0 136 136v36h-68v-40q0 -38 -16 -54t-54 -16h-132q-38 0 -54 16t-16 54v276q0 38 16 54t54 16h132q38 0 54 -16t16 -54v-40h68v36q0 136 -136 136h-136zM232 606l-114 120h70l80 -82l80 82h70l-114 -120h-72z
" />
    <glyph glyph-name="Dcaron" unicode="&#x10e;" horiz-adv-x="707" 
d="M334 766l-114 120h70l80 -82l80 82h70l-114 -120h-72zM46 62v-62h443q140 0 140 140v420q0 140 -140 140h-443v-62h100v-576h-100zM218 66v568h267q39 0 55.5 -16.5t16.5 -55.5v-424q0 -39 -16.5 -55.5t-55.5 -16.5h-267z" />
    <glyph glyph-name="dcaron" unicode="&#x10f;" horiz-adv-x="673" 
d="M490 730v-672h86v-58h-154v74q-33 -28 -54 -42q-57 -36 -144 -36q-86 0 -124 32.5t-38 103.5v276q0 71 38 103.5t124 32.5q48 0 86 -12q37 -10 58 -25q26 -16 54 -41v206h-100v58h168zM567 730h96v-74q0 -25 -6 -40q-7 -16 -31 -54l-36 -57h-40l63 123h-46v102zM422 123
v294q-51 36 -90 50q-41 15 -107 15q-54 0 -74.5 -15.5t-20.5 -54.5v-284q0 -39 20.5 -54.5t74.5 -15.5q67 0 107 15q39 14 90 50z" />
    <glyph glyph-name="Dcroat" unicode="&#x110;" horiz-adv-x="707" 
d="M46 638v62h443q140 0 140 -140v-420q0 -140 -140 -140h-443v62h100v259h-90v66h90v251h-100zM557 138v424q0 39 -16.5 55.5t-55.5 16.5h-267v-247h90v-66h-90v-255h267q39 0 55.5 16.5t16.5 55.5z" />
    <glyph glyph-name="dslash" unicode="&#x111;" horiz-adv-x="610" 
d="M490 58h86v-58h-154v74q-33 -28 -54 -42q-57 -36 -144 -36q-86 0 -124 32.5t-38 103.5v276q0 71 38 103.5t124 32.5q48 0 86 -12q37 -10 58 -25q26 -16 54 -41v102h-102v52h102v52h-100v58h168v-110h54v-52h-54v-510zM422 123v294q-51 36 -90 50q-41 15 -107 15
q-54 0 -74.5 -15.5t-20.5 -54.5v-284q0 -39 20.5 -54.5t74.5 -15.5q67 0 107 15q39 14 90 50z" />
    <glyph glyph-name="Emacron" unicode="&#x112;" 
d="M477 826v-60h-256v60h256zM583 520h-68v116h-297v-246h293v-64h-293v-262h297v116h68v-180h-537v62h100v576h-100v62h537v-180z" />
    <glyph glyph-name="emacron" unicode="&#x113;" horiz-adv-x="534" 
d="M393 666v-60h-256v60h256zM476 256h-346v-126q0 -38 16 -54t54 -16h138q38 0 54 16t16 54v39h68v-33q0 -136 -136 -136h-142q-136 0 -136 136v268q0 136 136 136h142q136 0 136 -136v-148zM338 480h-138q-38 0 -54 -16t-16 -54v-98h278v98q0 38 -16 54t-54 16z" />
    <glyph glyph-name="Edotaccent" unicode="&#x116;" 
d="M583 520h-68v116h-297v-246h293v-64h-293v-262h297v116h68v-180h-537v62h100v576h-100v62h537v-180zM393 860v-94h-80v94h80z" />
    <glyph glyph-name="edotaccent" unicode="&#x117;" horiz-adv-x="534" 
d="M476 256h-346v-126q0 -38 16 -54t54 -16h138q38 0 54 16t16 54v39h68v-33q0 -136 -136 -136h-142q-136 0 -136 136v268q0 136 136 136h142q136 0 136 -136v-148zM338 480h-138q-38 0 -54 -16t-16 -54v-98h278v98q0 38 -16 54t-54 16zM309 700v-94h-80v94h80z" />
    <glyph glyph-name="Eogonek" unicode="&#x118;" 
d="M567 -106h39v-54h-40q-109 0 -109 69q0 53 68 91h-479v62h100v576h-100v62h537v-180h-68v116h-297v-246h293v-64h-293v-262h297v116h68v-180q-33 -25 -45.5 -39.5t-12.5 -32.5q0 -34 42 -34z" />
    <glyph glyph-name="eogonek" unicode="&#x119;" horiz-adv-x="534" 
d="M476 256h-346v-126q0 -38 16 -54t54 -16h138q38 0 54 16t16 54v39h68v-33q0 -136 -136 -136h1q-33 -25 -45.5 -39.5t-12.5 -32.5q0 -34 42 -34h39v-54h-40q-109 0 -109 69q0 53 68 91h-85q-136 0 -136 136v268q0 136 136 136h142q136 0 136 -136v-148zM338 480h-138
q-38 0 -54 -16t-16 -54v-98h278v98q0 38 -16 54t-54 16z" />
    <glyph glyph-name="Ecaron" unicode="&#x11a;" 
d="M389 766h-72l-114 120h70l80 -82l80 82h70zM583 520h-68v116h-297v-246h293v-64h-293v-262h297v116h68v-180h-537v62h100v576h-100v62h537v-180z" />
    <glyph glyph-name="ecaron" unicode="&#x11b;" horiz-adv-x="534" 
d="M305 606h-72l-114 120h70l80 -82l80 82h70zM476 256h-346v-126q0 -38 16 -54t54 -16h138q38 0 54 16t16 54v39h68v-33q0 -136 -136 -136h-142q-136 0 -136 136v268q0 136 136 136h142q136 0 136 -136v-148zM338 480h-138q-38 0 -54 -16t-16 -54v-98h278v98q0 38 -16 54
t-54 16z" />
    <glyph glyph-name="Gbreve" unicode="&#x11e;" horiz-adv-x="653" 
d="M379 881h52v-51q0 -64 -64 -64h-70q-64 0 -64 64v51h52v-50q0 -11 3.5 -14.5t14.5 -3.5h58q11 0 14.5 3.5t3.5 14.5v50zM577 494h-72v68q0 39 -16.5 55.5t-55.5 16.5h-211q-39 0 -55.5 -16.5t-16.5 -55.5v-424q0 -39 16.5 -55.5t55.5 -16.5h211q39 0 55.5 16.5t16.5 55.5
v155h-187v66h259v-219q0 -140 -140 -140h-219q-140 0 -140 140v420q0 140 140 140h219q140 0 140 -140v-66z" />
    <glyph glyph-name="gbreve" unicode="&#x11f;" horiz-adv-x="610" 
d="M331 606h-70q-64 0 -64 64v51h52v-50q0 -11 3.5 -14.5t14.5 -3.5h58q11 0 14.5 3.5t3.5 14.5v50h52v-51q0 -64 -64 -64zM576 540v-58h-86v-506q0 -136 -136 -136h-234v60h232q38 0 54 16t16 54v118q-33 -28 -54 -42q-57 -36 -144 -36q-86 0 -124 32.5t-38 103.5v262
q0 71 38 103.5t124 32.5q48 0 86 -12q37 -10 58 -25q26 -16 54 -41v74h154zM422 137v280q-51 36 -90 50q-41 15 -107 15q-54 0 -74.5 -15.5t-20.5 -54.5v-270q0 -39 20.5 -54.5t74.5 -15.5q67 0 107 15q39 14 90 50z" />
    <glyph glyph-name="Gdotaccent" unicode="&#x120;" horiz-adv-x="653" 
d="M577 494h-72v68q0 39 -16.5 55.5t-55.5 16.5h-211q-39 0 -55.5 -16.5t-16.5 -55.5v-424q0 -39 16.5 -55.5t55.5 -16.5h211q39 0 55.5 16.5t16.5 55.5v155h-187v66h259v-219q0 -140 -140 -140h-219q-140 0 -140 140v420q0 140 140 140h219q140 0 140 -140v-66zM372 860
v-94h-80v94h80z" />
    <glyph glyph-name="gdotaccent" unicode="&#x121;" horiz-adv-x="610" 
d="M576 540v-58h-86v-506q0 -136 -136 -136h-234v60h232q38 0 54 16t16 54v118q-33 -28 -54 -42q-57 -36 -144 -36q-86 0 -124 32.5t-38 103.5v262q0 71 38 103.5t124 32.5q48 0 86 -12q37 -10 58 -25q26 -16 54 -41v74h154zM422 137v280q-51 36 -90 50q-41 15 -107 15
q-54 0 -74.5 -15.5t-20.5 -54.5v-270q0 -39 20.5 -54.5t74.5 -15.5q67 0 107 15q39 14 90 50zM336 700v-94h-80v94h80z" />
    <glyph glyph-name="Gcommaaccent" unicode="&#x122;" horiz-adv-x="653" 
d="M291 -70h88v-80q0 -12 -6 -25q-8 -17 -18 -34l-13 -25l-29 -57h-43l60 123h-39v98zM577 494h-72v68q0 39 -16.5 55.5t-55.5 16.5h-211q-39 0 -55.5 -16.5t-16.5 -55.5v-424q0 -39 16.5 -55.5t55.5 -16.5h211q39 0 55.5 16.5t16.5 55.5v155h-187v66h259v-219
q0 -140 -140 -140h-219q-140 0 -140 140v420q0 140 140 140h219q140 0 140 -140v-66z" />
    <glyph glyph-name="gcommaaccent" unicode="&#x123;" horiz-adv-x="610" 
d="M340 708v-98h-88v80q0 12 6 25l17 34q14 24 14 25l29 57h43l-60 -123h39zM576 540v-58h-86v-506q0 -136 -136 -136h-234v60h232q38 0 54 16t16 54v118q-33 -28 -54 -42q-57 -36 -144 -36q-86 0 -124 32.5t-38 103.5v262q0 71 38 103.5t124 32.5q48 0 86 -12
q37 -10 58 -25q26 -16 54 -41v74h154zM422 137v280q-51 36 -90 50q-41 15 -107 15q-54 0 -74.5 -15.5t-20.5 -54.5v-270q0 -39 20.5 -54.5t74.5 -15.5q67 0 107 15q39 14 90 50z" />
    <glyph glyph-name="Hbar" unicode="&#x126;" horiz-adv-x="784" 
d="M738 638h-100v-83h62v-52h-62v-441h100v-62h-272v62h100v273h-348v-273h100v-62h-272v62h100v441h-62v52h62v83h-100v62h272v-62h-100v-83h348v83h-100v62h272v-62zM566 401v102h-348v-102h348z" />
    <glyph glyph-name="hbar" unicode="&#x127;" horiz-adv-x="656" 
d="M538 58h84v-58h-238v58h86v355q0 39 -18.5 54.5t-68.5 15.5q-59 0 -100 -15q-37 -14 -89 -50v-360h86v-58h-244v58h90v510h-72v52h72v52h-90v58h158v-110h84v-52h-84v-101q49 41 86 59q38 19 104 19q80 0 117 -33t37 -103v-351z" />
    <glyph glyph-name="Imacron" unicode="&#x12a;" horiz-adv-x="388" 
d="M318 826v-60h-256v60h256zM338 638h-108v-576h108v-62h-288v62h108v576h-108v62h288v-62z" />
    <glyph glyph-name="imacron" unicode="&#x12b;" horiz-adv-x="322" 
d="M277 686v-60h-256v60h256zM198 58h86v-58h-244v58h90v424h-90v58h158v-482z" />
    <glyph glyph-name="Iogonek" unicode="&#x12e;" horiz-adv-x="388" 
d="M322 -106h39v-54h-40q-109 0 -109 69q0 53 68 91h-230v62h108v576h-108v62h288v-62h-108v-576h108v-62q-33 -25 -45.5 -39.5t-12.5 -32.5q0 -34 42 -34z" />
    <glyph glyph-name="iogonek" unicode="&#x12f;" horiz-adv-x="322" 
d="M203 710v-88h-78v88h78zM268 -106h39v-54h-40q-109 0 -109 69q0 53 68 91h-186v58h90v424h-90v58h158v-482h86v-58q-33 -25 -45.5 -39.5t-12.5 -32.5q0 -34 42 -34z" />
    <glyph glyph-name="Idot" unicode="&#x130;" horiz-adv-x="388" 
d="M338 638h-108v-576h108v-62h-288v62h108v576h-108v62h288v-62zM234 860v-94h-80v94h80z" />
    <glyph glyph-name="IJ" unicode="&#x132;" horiz-adv-x="998" 
d="M50 700h288v-62h-108v-576h108v-62h-288v62h108v576h-108v62zM956 700v-62h-92v-498q0 -140 -140 -140h-162q-140 0 -140 140v112h72v-114q0 -39 16.5 -55.5t55.5 -16.5h154q39 0 55.5 16.5t16.5 55.5v500h-116v62h280z" />
    <glyph glyph-name="ij" unicode="&#x133;" horiz-adv-x="561" 
d="M203 710v-88h-78v88h78zM417 710h78v-88h-78v88zM198 540v-482h86v-58h-244v58h90v424h-90v58h158zM332 540h158v-560q0 -60 -32 -91t-104 -45l-50 -10v49l48 17q36 13 53 29.5t17 45.5v507h-90v58z" />
    <glyph glyph-name="Kcommaaccent" unicode="&#x136;" horiz-adv-x="735" 
d="M636 62h81v-62h-122l-229 367l-148 -170v-135h116v-62h-288v62h100v576h-100v62h288v-62h-116v-355l300 355h-85v62h256v-62h-86l-192 -220zM356 -168v98h88v-80q0 -12 -6 -25q-8 -17 -18 -34l-13 -25l-29 -57h-43l60 123h-39z" />
    <glyph glyph-name="kcommaaccent" unicode="&#x137;" horiz-adv-x="602" 
d="M508 58h82v-58h-123l-159 279l-114 -125v-96h86v-58h-244v58h90v614h-90v58h158v-498l223 250h-71v58h224v-58h-77l-141 -155zM272 -168v98h88v-80q0 -12 -6 -25q-8 -17 -18 -34l-13 -25l-29 -57h-43l60 123h-39z" />
    <glyph glyph-name="Lacute" unicode="&#x139;" horiz-adv-x="622" 
d="M578 200v-200h-532v62h100v576h-100v62h292v-62h-120v-572h292v134h68zM314 910l-129 -144h-52l90 144h91z" />
    <glyph glyph-name="lacute" unicode="&#x13a;" horiz-adv-x="322" 
d="M287 940l-129 -144h-52l90 144h91zM198 730v-672h86v-58h-244v58h90v614h-90v58h158z" />
    <glyph glyph-name="Lcommaaccent" unicode="&#x13b;" horiz-adv-x="622" 
d="M325 -70h88v-80q0 -12 -6 -25q-8 -17 -18 -34l-13 -25l-29 -57h-43l60 123h-39v98zM578 200v-200h-532v62h100v576h-100v62h292v-62h-120v-572h292v134h68z" />
    <glyph glyph-name="lcommaaccent" unicode="&#x13c;" horiz-adv-x="322" 
d="M198 58h86v-58h-244v58h90v614h-90v58h158v-672zM120 -168v98h88v-80q0 -12 -6 -25q-8 -17 -18 -34l-13 -25l-29 -57h-43l60 123h-39z" />
    <glyph glyph-name="Lcaron" unicode="&#x13d;" horiz-adv-x="622" 
d="M443 700h96v-74q0 -25 -6 -40q-7 -16 -31 -54l-36 -57h-40l63 123h-46v102zM578 200v-200h-532v62h100v576h-100v62h292v-62h-120v-572h292v134h68z" />
    <glyph glyph-name="lcaron" unicode="&#x13e;" horiz-adv-x="350" 
d="M198 730v-672h86v-58h-244v58h90v614h-90v58h158zM246 730h88v-80q0 -12 -6 -25q-7 -16 -18 -35q-2 -4 -4.5 -8.5t-4 -7l-3 -5t-1.5 -3.5l-29 -57h-43l60 123h-39v98z" />
    <glyph glyph-name="Ldot" unicode="&#x13f;" horiz-adv-x="622" 
d="M578 200v-200h-532v62h100v576h-100v62h292v-62h-120v-572h292v134h68zM435 451v-102h-96v102h96z" />
    <glyph glyph-name="ldot" unicode="&#x140;" horiz-adv-x="393" 
d="M198 730v-672h86v-58h-244v58h90v614h-90v58h158zM285 448h88v-98h-88v98z" />
    <glyph glyph-name="Lslash" unicode="&#x141;" horiz-adv-x="618" 
d="M506 200h68v-200h-528v62h100v276l-67 -28v69l67 28v231h-100v62h288v-62h-116v-202l129 53v-69l-129 -53v-301h288v134z" />
    <glyph glyph-name="lslash" unicode="&#x142;" horiz-adv-x="316" 
d="M292 411l-101 -41v-312h86v-58h-244v58h90v284l-99 -41v69l99 41v261h-90v58h158v-291l101 41v-69z" />
    <glyph glyph-name="Nacute" unicode="&#x143;" horiz-adv-x="788" 
d="M746 700v-62h-94v-638h-69l-371 603v-541h112v-62h-278v62h100v576h-100v62h180l360 -584v522h-112v62h272zM515 910l-129 -144h-52l90 144h91z" />
    <glyph glyph-name="nacute" unicode="&#x144;" horiz-adv-x="656" 
d="M538 58h84v-58h-238v58h86v355q0 39 -19.5 54.5t-67.5 15.5q-59 0 -100 -15q-37 -14 -89 -50v-360h86v-58h-244v58h90v424h-90v58h158v-73q49 41 86 59q38 19 104 19q80 0 117 -33t37 -103v-351zM458 750l-129 -144h-52l90 144h91z" />
    <glyph glyph-name="Ncommaaccent" unicode="&#x145;" horiz-adv-x="788" 
d="M746 700v-62h-94v-638h-69l-371 603v-541h112v-62h-278v62h100v576h-100v62h180l360 -584v522h-112v62h272zM360 -168v98h88v-80q0 -12 -6 -25q-8 -17 -18 -34l-13 -25l-29 -57h-43l60 123h-39z" />
    <glyph glyph-name="ncommaaccent" unicode="&#x146;" horiz-adv-x="656" 
d="M538 58h84v-58h-238v58h86v355q0 39 -19.5 54.5t-67.5 15.5q-59 0 -100 -15q-37 -14 -89 -50v-360h86v-58h-244v58h90v424h-90v58h158v-73q49 41 86 59q38 19 104 19q80 0 117 -33t37 -103v-351zM288 -168v98h88v-80q0 -12 -6 -25q-8 -17 -18 -34l-13 -25l-29 -57h-43
l60 123h-39z" />
    <glyph glyph-name="Ncaron" unicode="&#x147;" horiz-adv-x="788" 
d="M428 766h-72l-114 120h70l80 -82l80 82h70zM746 700v-62h-94v-638h-69l-371 603v-541h112v-62h-278v62h100v576h-100v62h180l360 -584v522h-112v62h272z" />
    <glyph glyph-name="ncaron" unicode="&#x148;" horiz-adv-x="656" 
d="M371 606h-72l-114 120h70l80 -82l80 82h70zM538 58h84v-58h-238v58h86v355q0 39 -19.5 54.5t-67.5 15.5q-59 0 -100 -15q-37 -14 -89 -50v-360h86v-58h-244v58h90v424h-90v58h158v-73q49 41 86 59q38 19 104 19q80 0 117 -33t37 -103v-351z" />
    <glyph glyph-name="Eng" unicode="&#x14a;" horiz-adv-x="788" 
d="M746 700v-62h-94v-678q0 -68 -36 -104t-104 -36h-68v64h72q72 0 72 72v33l-376 615v-542h112v-62h-278v62h100v576h-100v62h178l362 -592v530h-112v62h272z" />
    <glyph glyph-name="eng" unicode="&#x14b;" horiz-adv-x="604" 
d="M384 545q80 0 117 -33t37 -103v-433q0 -136 -136 -136h-59v62h57q38 0 54 16t16 54v441q0 39 -19.5 54.5t-67.5 15.5q-59 0 -100 -15q-37 -14 -89 -50v-360h86v-58h-244v58h90v424h-90v58h158v-73q49 41 86 59q38 19 104 19z" />
    <glyph glyph-name="Omacron" unicode="&#x14c;" horiz-adv-x="657" 
d="M439 0h-221q-140 0 -140 140v420q0 140 140 140h221q140 0 140 -140v-420q0 -140 -140 -140zM150 562v-424q0 -39 16.5 -55.5t55.5 -16.5h213q39 0 55.5 16.5t16.5 55.5v424q0 39 -16.5 55.5t-55.5 16.5h-213q-39 0 -55.5 -16.5t-16.5 -55.5zM197 826h256v-60h-256v60z
" />
    <glyph glyph-name="omacron" unicode="&#x14d;" horiz-adv-x="545" 
d="M198 540h149q136 0 136 -136v-268q0 -136 -136 -136h-149q-136 0 -136 136v268q0 136 136 136zM415 132v276q0 38 -16.5 54t-53.5 16h-145q-38 0 -54 -16t-16 -54v-276q0 -38 16 -54t54 -16h145q37 0 53.5 16t16.5 54zM141 666h256v-60h-256v60z" />
    <glyph glyph-name="Ohungarumlaut" unicode="&#x150;" horiz-adv-x="657" 
d="M306 911h72l-115 -145h-72zM449 911h72l-115 -145h-72zM439 0h-221q-140 0 -140 140v420q0 140 140 140h221q140 0 140 -140v-420q0 -140 -140 -140zM150 562v-424q0 -39 16.5 -55.5t55.5 -16.5h213q39 0 55.5 16.5t16.5 55.5v424q0 39 -16.5 55.5t-55.5 16.5h-213
q-39 0 -55.5 -16.5t-16.5 -55.5z" />
    <glyph glyph-name="ohungarumlaut" unicode="&#x151;" horiz-adv-x="545" 
d="M250 751h72l-115 -145h-72zM393 751h72l-115 -145h-72zM198 540h149q136 0 136 -136v-268q0 -136 -136 -136h-149q-136 0 -136 136v268q0 136 136 136zM415 132v276q0 38 -16.5 54t-53.5 16h-145q-38 0 -54 -16t-16 -54v-276q0 -38 16 -54t54 -16h145q37 0 53.5 16
t16.5 54z" />
    <glyph glyph-name="OE" unicode="&#x152;" horiz-adv-x="1011" 
d="M218 700h726v-180h-68v116h-297v-246h293v-64h-293v-262h297v116h68v-180h-726q-140 0 -140 140v420q0 140 140 140zM507 66v568h-285q-39 0 -55.5 -16.5t-16.5 -55.5v-424q0 -39 16.5 -55.5t55.5 -16.5h285z" />
    <glyph glyph-name="oe" unicode="&#x153;" horiz-adv-x="887" 
d="M829 256h-346v-126q0 -38 16.5 -54t53.5 -16h138q37 0 53.5 16t16.5 54v39h68v-33q0 -136 -136 -136h-142q-65 0 -102 43q-37 -43 -102 -43h-149q-136 0 -136 136v268q0 136 136 136h149q65 0 102 -43q37 43 102 43h142q136 0 136 -136v-148zM483 312h278v98q0 38 -16 54
t-54 16h-138q-37 0 -53.5 -16t-16.5 -54v-98zM415 132v276q0 38 -16.5 54t-53.5 16h-145q-38 0 -54 -16t-16 -54v-276q0 -38 16 -54t54 -16h145q37 0 53.5 16t16.5 54z" />
    <glyph glyph-name="Racute" unicode="&#x154;" horiz-adv-x="712" 
d="M595 62h93v-62h-140l-147 296h-183v-234h104v-62h-276v62h100v576h-100v62h428q140 0 140 -140v-120q0 -138 -137 -140zM218 634v-272h252q39 0 55.5 16.5t16.5 55.5v128q0 39 -16.5 55.5t-55.5 16.5h-252zM479 910l-129 -144h-52l90 144h91z" />
    <glyph glyph-name="racute" unicode="&#x155;" horiz-adv-x="420" 
d="M366 540h24v-66h-24q-44 0 -81 -14.5t-91 -48.5v-353h110v-58h-268v58h90v422l-90 2v58h158v-78l50 39q20 16 54 27.5t68 11.5zM357 750l-129 -144h-52l90 144h91z" />
    <glyph glyph-name="Rcommaaccent" unicode="&#x156;" horiz-adv-x="712" 
d="M595 62h93v-62h-140l-147 296h-183v-234h104v-62h-276v62h100v576h-100v62h428q140 0 140 -140v-120q0 -138 -137 -140zM218 634v-272h252q39 0 55.5 16.5t16.5 55.5v128q0 39 -16.5 55.5t-55.5 16.5h-252zM354 -168v98h88v-80q0 -12 -6 -25q-8 -17 -18 -34l-13 -25
l-29 -57h-43l60 123h-39z" />
    <glyph glyph-name="rcommaaccent" unicode="&#x157;" horiz-adv-x="420" 
d="M366 540h24v-66h-24q-44 0 -81 -14.5t-91 -48.5v-353h110v-58h-268v58h90v422l-90 2v58h158v-78l50 39q20 16 54 27.5t68 11.5zM116 -168v98h88v-80q0 -12 -6 -25q-8 -17 -18 -34l-13 -25l-29 -57h-43l60 123h-39z" />
    <glyph glyph-name="Rcaron" unicode="&#x158;" horiz-adv-x="712" 
d="M392 766h-72l-114 120h70l80 -82l80 82h70zM595 62h93v-62h-140l-147 296h-183v-234h104v-62h-276v62h100v576h-100v62h428q140 0 140 -140v-120q0 -138 -137 -140zM218 634v-272h252q39 0 55.5 16.5t16.5 55.5v128q0 39 -16.5 55.5t-55.5 16.5h-252z" />
    <glyph glyph-name="rcaron" unicode="&#x159;" horiz-adv-x="420" 
d="M270 606h-72l-114 120h70l80 -82l80 82h70zM366 540h24v-66h-24q-44 0 -81 -14.5t-91 -48.5v-353h110v-58h-268v58h90v422l-90 2v58h158v-78l50 39q20 16 54 27.5t68 11.5z" />
    <glyph glyph-name="Sacute" unicode="&#x15a;" horiz-adv-x="612" 
d="M538 496h-72v70q0 39 -16.5 55.5t-55.5 16.5h-184q-39 0 -55.5 -16.5t-16.5 -55.5v-71q0 -37 16 -54.5t56 -26.5l194 -45q64 -15 100 -39q44 -28 44 -104v-86q0 -140 -140 -140h-204q-140 0 -140 140v71h72v-77q0 -39 16.5 -55.5t55.5 -16.5h196q39 0 55.5 16.5
t16.5 55.5v84q0 37 -16 54.5t-56 26.5l-194 45q-64 15 -100 38q-44 30 -44 105v73q0 140 140 140h192q140 0 140 -140v-64zM429 910l-129 -144h-52l90 144h91z" />
    <glyph glyph-name="sacute" unicode="&#x15b;" horiz-adv-x="522" 
d="M453 386h-66v22q0 38 -16.5 54t-53.5 16h-116q-39 0 -54.5 -18.5t-15.5 -65.5q0 -37 13.5 -51t48.5 -20l157 -26q62 -10 89 -41t27 -97q0 -84 -33 -121.5t-103 -37.5h-138q-136 0 -136 136v27h66v-31q0 -38 16 -54t54 -16h136q39 0 54.5 20t15.5 74q0 43 -13 58.5
t-49 21.5l-157 26q-62 10 -89 39.5t-27 89.5q0 78 33 113.5t103 35.5h118q136 0 136 -136v-18zM386 750l-129 -144h-52l90 144h91z" />
    <glyph glyph-name="Scedilla" unicode="&#x15e;" horiz-adv-x="612" 
d="M210 414l194 -45q64 -15 100 -39q44 -28 44 -104v-86q0 -140 -140 -140h-58v-56q0 -52 -18.5 -71t-69.5 -19h-58l-40 54h84q24 0 31 7t7 29v56h-82q-140 0 -140 140v71h72v-77q0 -39 16.5 -55.5t55.5 -16.5h196q39 0 55.5 16.5t16.5 55.5v84q0 37 -16 54.5t-56 26.5
l-194 45q-64 15 -100 38q-44 30 -44 105v73q0 140 140 140h192q140 0 140 -140v-64h-72v70q0 39 -16.5 55.5t-55.5 16.5h-184q-39 0 -55.5 -16.5t-16.5 -55.5v-71q0 -37 16 -54.5t56 -26.5z" />
    <glyph glyph-name="scedilla" unicode="&#x15f;" horiz-adv-x="522" 
d="M193 323l157 -26q62 -10 89 -41t27 -97q0 -84 -33 -121.5t-103 -37.5h-27v-56q0 -52 -18.5 -71t-69.5 -19h-58l-40 54h84q24 0 31 7t7 29v56h-47q-136 0 -136 136v27h66v-31q0 -38 16 -54t54 -16h136q39 0 54.5 20t15.5 74q0 43 -13 58.5t-49 21.5l-157 26
q-62 10 -89 39.5t-27 89.5q0 78 33 113.5t103 35.5h118q136 0 136 -136v-18h-66v22q0 38 -16.5 54t-53.5 16h-116q-39 0 -54.5 -18.5t-15.5 -65.5q0 -37 13.5 -51t48.5 -20z" />
    <glyph glyph-name="Scaron" unicode="&#x160;" horiz-adv-x="612" 
d="M466 496h72v64q0 140 -140 140h-192q-140 0 -140 -140v-73q0 -75 44 -105q36 -23 100 -38l194 -45q40 -9 56 -26.5t16 -54.5v-84q0 -39 -16.5 -55.5t-55.5 -16.5h-196q-39 0 -55.5 16.5t-16.5 55.5v77h-72v-71q0 -140 140 -140h204q140 0 140 140v86q0 76 -44 104
q-36 24 -100 39l-194 45q-40 9 -56 26.5t-16 54.5v71q0 39 16.5 55.5t55.5 16.5h184q39 0 55.5 -16.5t16.5 -55.5v-70zM270 766l-114 120h70l80 -82l80 82h70l-114 -120h-72z" />
    <glyph glyph-name="scaron" unicode="&#x161;" horiz-adv-x="522" 
d="M387 386h66v18q0 136 -136 136h-118q-70 0 -103 -35.5t-33 -113.5q0 -60 27 -89.5t89 -39.5l157 -26q36 -6 49 -21.5t13 -58.5q0 -54 -15.5 -74t-54.5 -20h-136q-38 0 -54 16t-16 54v31h-66v-27q0 -136 136 -136h138q70 0 103 37.5t33 121.5q0 66 -27 97t-89 41l-157 26
q-35 6 -48.5 20t-13.5 51q0 47 15.5 65.5t54.5 18.5h116q37 0 53.5 -16t16.5 -54v-22zM227 606l-114 120h70l80 -82l80 82h70l-114 -120h-72z" />
    <glyph glyph-name="Tcedilla" unicode="&#x162;" horiz-adv-x="662" 
d="M42 700h578v-200h-68v134h-185v-572h116v-62h-120v-56q0 -52 -18.5 -71t-69.5 -19h-58l-40 54h84q24 0 31 7t7 29v56h-120v62h116v572h-185v-134h-68v200z" />
    <glyph glyph-name="tcedilla" unicode="&#x163;" horiz-adv-x="370" 
d="M318 480h-135v-348q0 -38 16.5 -54t53.5 -16h65v-118q0 -52 -18.5 -71t-69.5 -19h-58l-40 54h84q24 0 31 7t7 29v56h-3q-136 0 -136 136v344h-80v60h80v130h68v-130h135v-60z" />
    <glyph glyph-name="Tcaron" unicode="&#x164;" horiz-adv-x="662" 
d="M367 766h-72l-114 120h70l80 -82l80 82h70zM42 700h578v-200h-68v134h-185v-572h116v-62h-304v62h116v572h-185v-134h-68v200z" />
    <glyph glyph-name="tcaron" unicode="&#x165;" horiz-adv-x="370" 
d="M267 815h96v-74q0 -25 -6 -40q-7 -16 -31 -54l-36 -57h-40l63 123h-46v102zM318 480h-135v-348q0 -38 16.5 -54t53.5 -16h65v-62h-67q-136 0 -136 136v344h-80v60h80v130h68v-130h135v-60z" />
    <glyph glyph-name="Tbar" unicode="&#x166;" horiz-adv-x="662" 
d="M455 826v-60h-256v60h256zM42 700h578v-200h-68v134h-185v-572h116v-62h-304v62h116v572h-185v-134h-68v200z" />
    <glyph glyph-name="tbar" unicode="&#x167;" horiz-adv-x="370" 
d="M318 480h-135v-153h125v-60h-125v-135q0 -38 16.5 -54t53.5 -16h65v-62h-67q-136 0 -136 136v131h-63v60h63v153h-80v60h80v130h68v-130h135v-60z" />
    <glyph glyph-name="Umacron" unicode="&#x16a;" horiz-adv-x="758" 
d="M503 826v-60h-256v60h256zM716 700v-62h-92v-498q0 -140 -140 -140h-210q-140 0 -140 140v498h-92v62h264v-62h-100v-500q0 -39 16.5 -55.5t55.5 -16.5h202q39 0 55.5 16.5t16.5 55.5v500h-100v62h264z" />
    <glyph glyph-name="umacron" unicode="&#x16b;" 
d="M435 666v-60h-256v60h256zM530 58h86v-58h-154v73q-48 -41 -87 -60q-37 -18 -103 -18q-80 0 -117 33t-37 103v351h-84v58h152v-413q0 -39 19.5 -54.5t67.5 -15.5q59 0 100 15q37 14 89 50v360h-100v58h168v-482z" />
    <glyph glyph-name="Uring" unicode="&#x16e;" horiz-adv-x="758" 
d="M405 766h-52q-32 0 -46 14t-14 46v38q0 32 14 46t46 14h52q32 0 46 -14t14 -46v-38q0 -32 -14 -46t-46 -14zM341 872v-54q0 -10 10 -10h56q10 0 10 10v54q0 10 -10 10h-56q-10 0 -10 -10zM716 700v-62h-92v-498q0 -140 -140 -140h-210q-140 0 -140 140v498h-92v62h264
v-62h-100v-500q0 -39 16.5 -55.5t55.5 -16.5h202q39 0 55.5 16.5t16.5 55.5v500h-100v62h264z" />
    <glyph glyph-name="uring" unicode="&#x16f;" 
d="M337 606h-52q-32 0 -46 14t-14 46v38q0 32 14 46t46 14h52q32 0 46 -14t14 -46v-38q0 -32 -14 -46t-46 -14zM273 712v-54q0 -10 10 -10h56q10 0 10 10v54q0 10 -10 10h-56q-10 0 -10 -10zM530 58h86v-58h-154v73q-48 -41 -87 -60q-37 -18 -103 -18q-80 0 -117 33t-37 103
v351h-84v58h152v-413q0 -39 19.5 -54.5t67.5 -15.5q59 0 100 15q37 14 89 50v360h-100v58h168v-482z" />
    <glyph glyph-name="Uhungarumlaut" unicode="&#x170;" horiz-adv-x="758" 
d="M428 911l-115 -145h-72l115 145h72zM456 766h-72l115 145h72zM716 700v-62h-92v-498q0 -140 -140 -140h-210q-140 0 -140 140v498h-92v62h264v-62h-100v-500q0 -39 16.5 -55.5t55.5 -16.5h202q39 0 55.5 16.5t16.5 55.5v500h-100v62h264z" />
    <glyph glyph-name="uhungarumlaut" unicode="&#x171;" 
d="M360 751l-115 -145h-72l115 145h72zM388 606h-72l115 145h72zM530 58h86v-58h-154v73q-48 -41 -87 -60q-37 -18 -103 -18q-80 0 -117 33t-37 103v351h-84v58h152v-413q0 -39 19.5 -54.5t67.5 -15.5q59 0 100 15q37 14 89 50v360h-100v58h168v-482z" />
    <glyph glyph-name="Uogonek" unicode="&#x172;" horiz-adv-x="758" 
d="M716 700v-62h-92v-498q0 -140 -140 -140h-62q-33 -25 -45.5 -39.5t-12.5 -32.5q0 -34 42 -34h39v-54h-40q-109 0 -109 69q0 53 68 91h-90q-140 0 -140 140v498h-92v62h264v-62h-100v-500q0 -39 16.5 -55.5t55.5 -16.5h202q39 0 55.5 16.5t16.5 55.5v500h-100v62h264z" />
    <glyph glyph-name="uogonek" unicode="&#x173;" 
d="M600 -106h39v-54h-40q-109 0 -109 69q0 53 68 91h-96v73q-48 -41 -87 -60q-37 -18 -103 -18q-80 0 -117 33t-37 103v351h-84v58h152v-413q0 -39 19.5 -54.5t67.5 -15.5q59 0 100 15q37 14 89 50v360h-100v58h168v-482h86v-58q-33 -25 -45.5 -39.5t-12.5 -32.5
q0 -34 42 -34z" />
    <glyph glyph-name="Wcircumflex" unicode="&#x174;" horiz-adv-x="1046" 
d="M524 848l-79 -82h-73l116 120h72l116 -120h-73zM1024 700v-62h-91l-172 -638h-77l-160 587l-160 -587h-79l-172 638h-91v62h261v-62h-94l134 -546l166 608h70l166 -608l134 546h-94v62h259z" />
    <glyph glyph-name="wcircumflex" unicode="&#x175;" horiz-adv-x="838" 
d="M420 688l-79 -82h-73l116 120h72l116 -120h-73zM822 540v-58h-66l-131 -482h-77l-128 450l-128 -450h-79l-131 482h-66v58h204v-58h-70l102 -413l133 471h70l133 -471l102 413h-70v58h202z" />
    <glyph glyph-name="Ycircumflex" unicode="&#x176;" horiz-adv-x="724" 
d="M363 848l-79 -82h-73l116 120h72l116 -120h-73zM613 638l-215 -390v-186h116v-62h-304v62h116v186l-215 390h-87v62h256v-62h-91l174 -322l174 322h-91v62h254v-62h-87z" />
    <glyph glyph-name="ycircumflex" unicode="&#x177;" horiz-adv-x="590" 
d="M296 688l-79 -82h-73l116 120h72l116 -120h-73zM574 482h-65l-225 -580h58v-62h-206v62h83l36 98l-175 482h-64v58h204v-58h-71l140 -405l152 405h-69v58h202v-58z" />
    <glyph glyph-name="Ydieresis" unicode="&#x178;" horiz-adv-x="724" 
d="M613 638l-215 -390v-186h116v-62h-304v62h116v186l-215 390h-87v62h256v-62h-91l174 -322l174 322h-91v62h254v-62h-87zM317 866v-100h-78v100h78zM487 866v-100h-78v100h78z" />
    <glyph glyph-name="Zacute" unicode="&#x179;" horiz-adv-x="630" 
d="M498 200h68v-200h-502v53l411 582h-330v-135h-68v200h485v-53l-411 -582h347v135zM448 910l-129 -144h-52l90 144h91z" />
    <glyph glyph-name="zacute" unicode="&#x17a;" horiz-adv-x="524" 
d="M408 152h64v-152h-420v42l330 440h-248v-94h-64v152h400v-42l-330 -440h268v94zM402 750l-129 -144h-52l90 144h91z" />
    <glyph glyph-name="Zdotaccent" unicode="&#x17b;" horiz-adv-x="630" 
d="M498 200h68v-200h-502v53l411 582h-330v-135h-68v200h485v-53l-411 -582h347v135zM365 860v-94h-80v94h80z" />
    <glyph glyph-name="zdotaccent" unicode="&#x17c;" horiz-adv-x="524" 
d="M408 152h64v-152h-420v42l330 440h-248v-94h-64v152h400v-42l-330 -440h268v94zM319 700v-94h-80v94h80z" />
    <glyph glyph-name="Zcaron" unicode="&#x17d;" horiz-adv-x="630" 
d="M361 766h-72l-114 120h70l80 -82l80 82h70zM498 200h68v-200h-502v53l411 582h-330v-135h-68v200h485v-53l-411 -582h347v135z" />
    <glyph glyph-name="zcaron" unicode="&#x17e;" horiz-adv-x="524" 
d="M315 606h-72l-114 120h70l80 -82l80 82h70zM408 152h64v-152h-420v42l330 440h-248v-94h-64v152h400v-42l-330 -440h268v94z" />
    <glyph glyph-name="florin" unicode="&#x192;" horiz-adv-x="430" 
d="M384 700v-66h-73q-39 0 -55.5 -16.5t-16.5 -55.5v-132h135v-62h-135v-228q0 -140 -140 -140h-53v66h49q39 0 55.5 16.5t16.5 55.5v230h-114v62h114v130q0 140 140 140h77z" />
    <glyph glyph-name="circumflex" unicode="&#x2c6;" horiz-adv-x="684" 
d="M263 766h-73l116 120h72l116 -120h-73l-79 82z" />
    <glyph glyph-name="caron" unicode="&#x2c7;" horiz-adv-x="684" 
d="M306 766l-114 120h70l80 -82l80 82h70l-114 -120h-72z" />
    <glyph glyph-name="breve" unicode="&#x2d8;" horiz-adv-x="642" 
d="M368 881h52v-51q0 -64 -64 -64h-70q-64 0 -64 64v51h52v-50q0 -11 4 -14.5t14 -3.5h58q10 0 14 3.5t4 14.5v50z" />
    <glyph glyph-name="dotaccent" unicode="&#x2d9;" horiz-adv-x="492" 
d="M286 860v-94h-80v94h80z" />
    <glyph glyph-name="ring" unicode="&#x2da;" horiz-adv-x="368" 
d="M210 766h-52q-32 0 -46 14t-14 46v38q0 32 14 46t46 14h52q32 0 46 -14t14 -46v-38q0 -32 -14 -46t-46 -14zM212 882h-56q-10 0 -10 -10v-54q0 -10 10 -10h56q10 0 10 10v54q0 10 -10 10z" />
    <glyph glyph-name="ogonek" unicode="&#x2db;" horiz-adv-x="413" 
d="M189 -72q0 -34 42 -34h39v-54h-40q-109 0 -109 69q0 53 68 91h58q-33 -25 -45.5 -39.5t-12.5 -32.5z" />
    <glyph glyph-name="tilde" unicode="&#x2dc;" horiz-adv-x="692" 
d="M242 776h-50v17q0 40 22.5 63t59.5 23q40 0 78 -31q40 -31 65 -31q33 0 33 33v21h50v-17q0 -40 -22.5 -63t-59.5 -23q-42 0 -82 31q-38 31 -61 31q-33 0 -33 -33v-21z" />
    <glyph glyph-name="hungarumlaut" unicode="&#x2dd;" horiz-adv-x="774" 
d="M337 911h72l-115 -145h-72zM480 911h72l-115 -145h-72z" />
    <glyph glyph-name="uni0326" unicode="&#x326;" horiz-adv-x="0" 
d="M143 -70h88v-80q0 -12 -6 -25q-8 -17 -18 -34l-13 -25l-29 -57h-43l60 123h-39v98z" />
    <glyph glyph-name="Wgrave" unicode="&#x1e80;" horiz-adv-x="1046" 
d="M582 766h-52l-129 144h91zM1024 700v-62h-91l-172 -638h-77l-160 587l-160 -587h-79l-172 638h-91v62h261v-62h-94l134 -546l166 608h70l166 -608l134 546h-94v62h259z" />
    <glyph glyph-name="wgrave" unicode="&#x1e81;" horiz-adv-x="838" 
d="M478 606h-52l-129 144h91zM822 540v-58h-66l-131 -482h-77l-128 450l-128 -450h-79l-131 482h-66v58h204v-58h-70l102 -413l133 471h70l133 -471l102 413h-70v58h202z" />
    <glyph glyph-name="Wacute" unicode="&#x1e82;" horiz-adv-x="1046" 
d="M1024 700v-62h-91l-172 -638h-77l-160 587l-160 -587h-79l-172 638h-91v62h261v-62h-94l134 -546l166 608h70l166 -608l134 546h-94v62h259zM647 910l-129 -144h-52l90 144h91z" />
    <glyph glyph-name="wacute" unicode="&#x1e83;" horiz-adv-x="838" 
d="M822 540v-58h-66l-131 -482h-77l-128 450l-128 -450h-79l-131 482h-66v58h204v-58h-70l102 -413l133 471h70l133 -471l102 413h-70v58h202zM543 750l-129 -144h-52l90 144h91z" />
    <glyph glyph-name="Wdieresis" unicode="&#x1e84;" horiz-adv-x="1046" 
d="M1024 700v-62h-91l-172 -638h-77l-160 587l-160 -587h-79l-172 638h-91v62h261v-62h-94l134 -546l166 608h70l166 -608l134 546h-94v62h259zM478 866v-100h-78v100h78zM648 866v-100h-78v100h78z" />
    <glyph glyph-name="wdieresis" unicode="&#x1e85;" horiz-adv-x="838" 
d="M822 540v-58h-66l-131 -482h-77l-128 450l-128 -450h-79l-131 482h-66v58h204v-58h-70l102 -413l133 471h70l133 -471l102 413h-70v58h202zM374 706v-100h-78v100h78zM544 706v-100h-78v100h78z" />
    <glyph glyph-name="Ygrave" unicode="&#x1ef2;" horiz-adv-x="724" 
d="M421 766h-52l-129 144h91zM613 638l-215 -390v-186h116v-62h-304v62h116v186l-215 390h-87v62h256v-62h-91l174 -322l174 322h-91v62h254v-62h-87z" />
    <glyph glyph-name="ygrave" unicode="&#x1ef3;" horiz-adv-x="590" 
d="M354 606h-52l-129 144h91zM574 482h-65l-225 -580h58v-62h-206v62h83l36 98l-175 482h-64v58h204v-58h-71l140 -405l152 405h-69v58h202v-58z" />
    <glyph glyph-name="endash" unicode="&#x2013;" horiz-adv-x="582" 
d="M76 364h430v-68h-430v68z" />
    <glyph glyph-name="emdash" unicode="&#x2014;" horiz-adv-x="836" 
d="M76 363h684v-66h-684v66z" />
    <glyph glyph-name="quoteleft" unicode="&#x2018;" horiz-adv-x="248" 
d="M172 475h-96v74q0 25 6 39q6 16 31 55l36 57h40l-63 -123h46v-102z" />
    <glyph glyph-name="quoteright" unicode="&#x2019;" horiz-adv-x="248" 
d="M76 700h96v-74q0 -25 -6 -40q-7 -16 -31 -54l-36 -57h-40l63 123h-46v102z" />
    <glyph glyph-name="quotesinglbase" unicode="&#x201a;" horiz-adv-x="248" 
d="M76 102h96v-74q0 -26 -6 -39q-6 -16 -31 -55l-36 -57h-40l63 123h-46v102z" />
    <glyph glyph-name="quotedblleft" unicode="&#x201c;" horiz-adv-x="398" 
d="M172 475h-96v74q0 25 6 39q6 16 31 55l36 57h40l-63 -123h46v-102zM322 475h-96v74q0 25 6 39q6 16 31 55l36 57h40l-63 -123h46v-102z" />
    <glyph glyph-name="quotedblright" unicode="&#x201d;" horiz-adv-x="398" 
d="M76 700h96v-74q0 -25 -6 -40q-7 -16 -31 -54l-36 -57h-40l63 123h-46v102zM226 700h96v-74q0 -25 -6 -40q-7 -16 -31 -54l-36 -57h-40l63 123h-46v102z" />
    <glyph glyph-name="quotedblbase" unicode="&#x201e;" horiz-adv-x="398" 
d="M76 102h96v-74q0 -26 -6 -39q-6 -16 -31 -55l-36 -57h-40l63 123h-46v102zM226 102h96v-74q0 -26 -6 -39q-6 -16 -31 -55l-36 -57h-40l63 123h-46v102z" />
    <glyph glyph-name="dagger" unicode="&#x2020;" horiz-adv-x="398" 
d="M346 540v-60h-114v-480h-66v480h-114v60h114v160h66v-160h114z" />
    <glyph glyph-name="daggerdbl" unicode="&#x2021;" horiz-adv-x="398" 
d="M346 480h-114v-240h114v-60h-114v-180h-66v180h-114v60h114v240h-114v60h114v160h66v-160h114v-60z" />
    <glyph glyph-name="bullet" unicode="&#x2022;" horiz-adv-x="452" 
d="M226 270q-51 0 -71.5 21t-20.5 71q0 51 21 71.5t71 20.5q51 0 71.5 -20.5t20.5 -71.5t-21 -71.5t-71 -20.5z" />
    <glyph glyph-name="ellipsis" unicode="&#x2026;" horiz-adv-x="668" 
d="M172 102v-102h-96v102h96zM382 102v-102h-96v102h96zM592 102v-102h-96v102h96z" />
    <glyph glyph-name="perthousand" unicode="&#x2030;" horiz-adv-x="927" 
d="M134 700h75q37 0 54.5 -17t17.5 -55v-132q0 -38 -17.5 -55t-54.5 -17h-75q-38 0 -55 17t-17 55v132q0 38 17 55t55 17zM489 700h60l-380 -700h-60zM227 498v128q0 14 -5 19t-19 5h-63q-14 0 -19 -5t-5 -19v-128q0 -14 5 -19t19 -5h63q14 0 19 5t5 19zM449 276h75
q38 0 55 -17t17 -55v-132q0 -38 -17 -55t-55 -17h-75q-37 0 -54.5 17t-17.5 55v132q0 38 17.5 55t54.5 17zM718 276h75q37 0 54.5 -17t17.5 -55v-132q0 -38 -17.5 -55t-54.5 -17h-75q-38 0 -55 17t-17 55v132q0 38 17 55t55 17zM542 74v128q0 14 -5 19t-19 5h-63
q-14 0 -19 -5t-5 -19v-128q0 -14 5 -19t19 -5h63q14 0 19 5t5 19zM811 74v128q0 14 -5 19t-19 5h-63q-14 0 -19 -5t-5 -19v-128q0 -14 5 -19t19 -5h63q14 0 19 5t5 19z" />
    <glyph glyph-name="guilsinglleft" unicode="&#x2039;" horiz-adv-x="288" 
d="M168 509h72l-141 -208l141 -207h-72l-128 187v40z" />
    <glyph glyph-name="guilsinglright" unicode="&#x203a;" horiz-adv-x="288" 
d="M120 509l128 -188v-40l-128 -187h-72l141 207l-141 208h72z" />
    <glyph glyph-name="fraction" unicode="&#x2044;" horiz-adv-x="164" 
d="M244 700h58l-382 -700h-58z" />
    <glyph glyph-name="zerosuperior" unicode="&#x2070;" horiz-adv-x="376" 
d="M234 450h-92q-49 0 -69.5 20.5t-20.5 69.5v180q0 48 21 69t69 21h92q49 0 69.5 -20.5t20.5 -69.5v-180q0 -48 -20.5 -69t-69.5 -21zM110 717v-174q0 -23 7.5 -30.5t30.5 -7.5h80q23 0 30.5 7.5t7.5 30.5v174q0 23 -7.5 30.5t-30.5 7.5h-80q-23 0 -30.5 -7.5t-7.5 -30.5z
" />
    <glyph glyph-name="foursuperior" unicode="&#x2074;" horiz-adv-x="390" 
d="M351 549h-57v-51h57v-48h-180v48h66v51h-193l-8 44l203 217h55v-209h57v-52zM106 601h131v135z" />
    <glyph glyph-name="fivesuperior" unicode="&#x2075;" horiz-adv-x="360" 
d="M305 810v-55h-195v-109q21 20 43 28.5t70 10.5q48 0 69 -20.5t21 -69.5v-55q0 -48 -20.5 -69t-69.5 -21h-85q-48 0 -69 20.5t-21 69.5v15h58v-12q0 -23 7.5 -30.5t30.5 -7.5h73q23 0 30.5 7.5t7.5 30.5v52q0 23 -7.5 30.5t-30.5 7.5q-63 0 -107 -24l-58 18v183h253z" />
    <glyph glyph-name="sixsuperior" unicode="&#x2076;" horiz-adv-x="367" 
d="M312 709h-58v8q0 23 -7.5 30.5t-30.5 7.5h-68q-23 0 -30.5 -7.5t-7.5 -30.5v-81q8 7 25 20q32 19 92 19q49 0 69.5 -20.5t20.5 -69.5v-45q0 -49 -20.5 -69.5t-69.5 -20.5h-85q-49 0 -69.5 20.5t-20.5 69.5v180q0 49 20.5 69.5t69.5 20.5h80q49 0 69.5 -20.5t20.5 -69.5
v-11zM110 601v-58q0 -23 7.5 -30.5t30.5 -7.5h73q23 0 30.5 7.5t7.5 30.5v43q0 23 -7.5 30.5t-30.5 7.5q-68 0 -111 -23z" />
    <glyph glyph-name="sevensuperior" unicode="&#x2077;" horiz-adv-x="341" 
d="M33 810h272v-43l-166 -317h-63l163 305h-156v-67h-50v122z" />
    <glyph glyph-name="eightsuperior" unicode="&#x2078;" horiz-adv-x="370" 
d="M317 709q0 -59 -36 -75q40 -12 40 -79q0 -59 -20.5 -82t-69.5 -23h-92q-49 0 -69.5 23t-20.5 82q0 67 40 79q-36 16 -36 75q0 56 20.5 78.5t69.5 22.5h84q49 0 69.5 -22.5t20.5 -78.5zM221 756h-72q-24 0 -31 -9t-7 -39t7 -39t31 -9h72q24 0 31 9t7 39t-7 39t-31 9z
M225 609h-80q-24 0 -31 -9.5t-7 -43.5q0 -33 7 -42.5t31 -9.5h80q24 0 31 9.5t7 42.5q0 34 -7 43.5t-31 9.5z" />
    <glyph glyph-name="ninesuperior" unicode="&#x2079;" horiz-adv-x="367" 
d="M55 551h58v-8q0 -23 7.5 -30.5t30.5 -7.5h68q23 0 30.5 7.5t7.5 30.5v81q-8 -8 -25 -20q-32 -19 -92 -19q-49 0 -69.5 20.5t-20.5 69.5v45q0 49 20.5 69.5t69.5 20.5h85q49 0 69.5 -20.5t20.5 -69.5v-180q0 -49 -20.5 -69.5t-69.5 -20.5h-80q-49 0 -69.5 20.5t-20.5 69.5
v11zM257 659v58q0 23 -7.5 30.5t-30.5 7.5h-73q-23 0 -30.5 -7.5t-7.5 -30.5v-43q0 -23 7.5 -30.5t30.5 -7.5q68 0 111 23z" />
    <glyph glyph-name="Euro" unicode="&#x20ac;" horiz-adv-x="688" 
d="M620 484h-72v78q0 39 -16.5 55.5t-55.5 16.5h-200q-39 0 -55.5 -16.5t-16.5 -55.5v-89h256v-64h-256v-110h256v-64h-256v-97q0 -39 16.5 -55.5t55.5 -16.5h200q39 0 55.5 16.5t16.5 55.5v78h72v-76q0 -140 -140 -140h-208q-140 0 -140 140v95h-82v64h82v110h-82v64h82v87
q0 140 140 140h208q140 0 140 -140v-76z" />
    <glyph glyph-name="trademark" unicode="&#x2122;" horiz-adv-x="853" 
d="M42 700h292v-115h-43v75h-81v-282h50v-38h-145v38h50v282h-80v-75h-43v115zM811 662h-50v-284h50v-38h-145v38h50v230l-100 -226h-34l-102 226v-230h50v-38h-145v38h50v284h-54v38h104l113 -251l113 251h100v-38z" />
    <glyph glyph-name="oneeighth" unicode="&#x215b;" horiz-adv-x="796" 
d="M234 340h-204v48h75v252l-75 -24v50l86 34h47v-312h71v-48zM506 700h58l-382 -700h-58zM707 184q40 -12 40 -79q0 -59 -20.5 -82t-69.5 -23h-92q-49 0 -69.5 23t-20.5 82q0 67 40 79q-36 16 -36 75q0 56 20.5 78.5t69.5 22.5h84q49 0 69.5 -22.5t20.5 -78.5
q0 -59 -36 -75zM647 306h-72q-24 0 -31 -9t-7 -39t7 -39t31 -9h72q24 0 31 9t7 39t-7 39t-31 9zM571 54h80q24 0 31 9.5t7 42.5q0 34 -7 43.5t-31 9.5h-80q-24 0 -31 -9.5t-7 -43.5q0 -33 7 -42.5t31 -9.5z" />
    <glyph glyph-name="threeeighths" unicode="&#x215c;" horiz-adv-x="893" 
d="M42 446h58v-1q0 -32 7 -41.5t31 -9.5h76q24 0 31 9.5t7 43.5q0 33 -7 42.5t-31 9.5h-85v51h81q24 0 31 9t7 39t-7 39t-31 9h-68q-24 0 -31 -9t-7 -39v-4h-58v5q0 56 20.5 78.5t69.5 22.5h80q49 0 69.5 -22.5t20.5 -78.5q0 -57 -37 -75q41 -12 41 -79q0 -59 -20.5 -82
t-69.5 -23h-88q-49 0 -69.5 23t-20.5 82v1zM840 259q0 -59 -36 -75q40 -12 40 -79q0 -59 -20.5 -82t-69.5 -23h-92q-49 0 -69.5 23t-20.5 82q0 67 40 79q-36 16 -36 75q0 56 20.5 78.5t69.5 22.5h84q49 0 69.5 -22.5t20.5 -78.5zM744 306h-72q-24 0 -31 -9t-7 -39t7 -39
t31 -9h72q24 0 31 9t7 39t-7 39t-31 9zM748 159h-80q-24 0 -31 -9.5t-7 -43.5q0 -33 7 -42.5t31 -9.5h80q24 0 31 9.5t7 42.5q0 34 -7 43.5t-31 9.5zM603 700h58l-382 -700h-58z" />
    <glyph glyph-name="fiveeighths" unicode="&#x215d;" horiz-adv-x="894" 
d="M841 259q0 -59 -36 -75q40 -12 40 -79q0 -59 -20.5 -82t-69.5 -23h-92q-49 0 -69.5 23t-20.5 82q0 67 40 79q-36 16 -36 75q0 56 20.5 78.5t69.5 22.5h84q49 0 69.5 -22.5t20.5 -78.5zM745 306h-72q-24 0 -31 -9t-7 -39t7 -39t31 -9h72q24 0 31 9t7 39t-7 39t-31 9z
M749 159h-80q-24 0 -31 -9.5t-7 -43.5q0 -33 7 -42.5t31 -9.5h80q24 0 31 9.5t7 42.5q0 34 -7 43.5t-31 9.5zM305 700v-55h-195v-109q21 20 43 28.5t70 10.5q48 0 69 -20.5t21 -69.5v-55q0 -48 -20.5 -69t-69.5 -21h-85q-48 0 -69 20.5t-21 69.5v15h58v-12q0 -23 7.5 -30.5
t30.5 -7.5h73q23 0 30.5 7.5t7.5 30.5v52q0 23 -7.5 30.5t-30.5 7.5q-63 0 -107 -24l-58 18v183h253zM604 700h58l-382 -700h-58z" />
    <glyph glyph-name="seveneighths" unicode="&#x215e;" horiz-adv-x="795" 
d="M76 340l163 305h-156v-67h-50v122h272v-43l-166 -317h-63zM505 700h58l-382 -700h-58zM706 184q40 -12 40 -79q0 -59 -20.5 -82t-69.5 -23h-92q-49 0 -69.5 23t-20.5 82q0 67 40 79q-36 16 -36 75q0 56 20.5 78.5t69.5 22.5h84q49 0 69.5 -22.5t20.5 -78.5q0 -59 -36 -75
zM646 306h-72q-24 0 -31 -9t-7 -39t7 -39t31 -9h72q24 0 31 9t7 39t-7 39t-31 9zM570 54h80q24 0 31 9.5t7 42.5q0 34 -7 43.5t-31 9.5h-80q-24 0 -31 -9.5t-7 -43.5q0 -33 7 -42.5t31 -9.5z" />
    <glyph glyph-name="minus" unicode="&#x2212;" horiz-adv-x="532" 
d="M78 329v62h376v-62h-376z" />
    <glyph glyph-name="infinity" unicode="&#x221e;" horiz-adv-x="860" 
d="M547 540h83q140 0 140 -140v-74q0 -140 -140 -140h-83q-99 0 -117 63q-18 -63 -117 -63h-83q-140 0 -140 140v74q0 140 140 140h83q99 0 117 -63q18 63 117 63zM228 246h97q39 0 55.5 16.5t16.5 55.5v90q0 39 -16.5 55.5t-55.5 16.5h-97q-39 0 -55.5 -16.5t-16.5 -55.5
v-90q0 -39 16.5 -55.5t55.5 -16.5zM704 318v90q0 39 -16.5 55.5t-55.5 16.5h-97q-39 0 -55.5 -16.5t-16.5 -55.5v-90q0 -39 16.5 -55.5t55.5 -16.5h97q39 0 55.5 16.5t16.5 55.5z" />
    <glyph glyph-name="notequal" unicode="&#x2260;" horiz-adv-x="532" 
d="M454 416h-125l-58 -104h183v-66h-219l-53 -95h-64l53 95h-93v66h129l58 104h-187v66h223l49 88h64l-49 -88h89v-66z" />
    <glyph glyph-name="NULL" horiz-adv-x="0" 
 />
    <glyph glyph-name="CR" horiz-adv-x="333" 
 />
    <glyph glyph-name="B.ss01" horiz-adv-x="684" 
d="M558 362q74 -21 74 -106v-116q0 -140 -140 -140h-442v62h100v576h-100v62h434q140 0 140 -140v-93q0 -79 -66 -105zM222 634v-239h258q39 0 55.5 16.5t16.5 55.5v95q0 39 -16.5 55.5t-55.5 16.5h-258zM560 138v120q0 39 -16.5 55.5t-55.5 16.5h-266v-264h266
q39 0 55.5 16.5t16.5 55.5z" />
    <glyph glyph-name="K.ss01" horiz-adv-x="739" 
d="M610 62h111v-62h-148l-266 325h-85v-263h116v-62h-288v62h100v576h-100v62h288v-62h-116v-247h90l212 247h-77v62h246v-62h-87l-240 -280z" />
    <glyph glyph-name="Kcommaaccent.ss01" horiz-adv-x="739" 
d="M610 62h111v-62h-148l-266 325h-85v-263h116v-62h-288v62h100v576h-100v62h288v-62h-116v-247h90l212 247h-77v62h246v-62h-87l-240 -280zM356 -168v98h88v-80q0 -12 -6 -25q-8 -17 -18 -34l-13 -25l-29 -57h-43l60 123h-39z" />
    <glyph glyph-name="k.ss01" horiz-adv-x="602" 
d="M500 58h80v-58h-116l-212 247h-58v-189h86v-58h-244v58h90v614h-90v58h158v-421h59l157 173h-62v58h208v-58h-63l-185 -204z" />
    <glyph glyph-name="kcommaaccent.ss01" horiz-adv-x="602" 
d="M500 58h80v-58h-116l-212 247h-58v-189h86v-58h-244v58h90v614h-90v58h158v-421h59l157 173h-62v58h208v-58h-63l-185 -204zM280 -168v98h88v-80q0 -12 -6 -25q-8 -17 -18 -34l-13 -25l-29 -57h-43l60 123h-39z" />
    <glyph glyph-name="three.ss01" horiz-adv-x="596" 
d="M58 199h72v-61q0 -39 16.5 -55.5t55.5 -16.5h188q39 0 55.5 16.5t16.5 55.5v118q0 39 -16.5 55.5t-55.5 16.5h-186v65h178q39 0 55.5 16.5t16.5 55.5v97q0 39 -16.5 55.5t-55.5 16.5h-172q-39 0 -55.5 -16.5t-16.5 -55.5v-61h-72v59q0 140 140 140h180q140 0 140 -140
v-95q0 -79 -66 -105q74 -21 74 -106v-114q0 -140 -140 -140h-196q-140 0 -140 140v59z" />
    <glyph glyph-name="eight.ss01" horiz-adv-x="608" 
d="M472 360q74 -21 74 -106v-114q0 -140 -140 -140h-204q-140 0 -140 140v114q0 85 74 106q-66 26 -66 105v95q0 140 140 140h188q140 0 140 -140v-95q0 -79 -66 -105zM142 562v-97q0 -39 16.5 -55.5t55.5 -16.5h180q39 0 55.5 16.5t16.5 55.5v97q0 39 -16.5 55.5
t-55.5 16.5h-180q-39 0 -55.5 -16.5t-16.5 -55.5zM474 138v118q0 39 -16.5 55.5t-55.5 16.5h-196q-39 0 -55.5 -16.5t-16.5 -55.5v-118q0 -39 16.5 -55.5t55.5 -16.5h196q39 0 55.5 16.5t16.5 55.5z" />
    <glyph glyph-name="zero.subs" horiz-adv-x="376" 
d="M234 -90h-92q-49 0 -69.5 20.5t-20.5 69.5v180q0 48 21 69t69 21h92q49 0 69.5 -20.5t20.5 -69.5v-180q0 -48 -20.5 -69t-69.5 -21zM110 177v-174q0 -23 7.5 -30.5t30.5 -7.5h80q23 0 30.5 7.5t7.5 30.5v174q0 23 -7.5 30.5t-30.5 7.5h-80q-23 0 -30.5 -7.5t-7.5 -30.5z
" />
    <glyph glyph-name="one.subs" horiz-adv-x="262" 
d="M163 -42h71v-48h-204v48h75v252l-75 -24v50l86 34h47v-312z" />
    <glyph glyph-name="two.subs" horiz-adv-x="356" 
d="M110 162h-58v18q0 49 20.5 69.5t69.5 20.5h79q49 0 69.5 -21t20.5 -69v-39q0 -28 -15 -41t-64 -31l-96 -35q-18 -6 -24.5 -11t-6.5 -14v-44h158v63h50v-118h-266v109q0 28 15 41t64 31l96 35q18 6 24.5 11t6.5 14v26q0 23 -7.5 30.5t-30.5 7.5h-67q-23 0 -30.5 -7.5
t-7.5 -30.5v-15z" />
    <glyph glyph-name="three.subs" horiz-adv-x="359" 
d="M42 16h58v-1q0 -32 7 -41.5t31 -9.5h76q24 0 31 9.5t7 43.5q0 33 -7 42.5t-31 9.5h-85v51h81q24 0 31 9t7 39t-7 39t-31 9h-68q-24 0 -31 -9t-7 -39v-4h-58v5q0 56 20.5 78.5t69.5 22.5h80q49 0 69.5 -22.5t20.5 -78.5q0 -57 -37 -75q41 -12 41 -79q0 -59 -20.5 -82
t-69.5 -23h-88q-49 0 -69.5 23t-20.5 82v1z" />
    <glyph glyph-name="four.subs" horiz-adv-x="390" 
d="M351 9h-57v-51h57v-48h-180v48h66v51h-193l-8 44l203 217h55v-209h57v-52zM106 61h131v135z" />
    <glyph glyph-name="five.subs" horiz-adv-x="360" 
d="M305 270v-55h-195v-109q21 20 43 28.5t70 10.5q48 0 69 -20.5t21 -69.5v-55q0 -48 -20.5 -69t-69.5 -21h-85q-48 0 -69 20.5t-21 69.5v15h58v-12q0 -23 7.5 -30.5t30.5 -7.5h73q23 0 30.5 7.5t7.5 30.5v52q0 23 -7.5 30.5t-30.5 7.5q-63 0 -107 -24l-58 18v183h253z" />
    <glyph glyph-name="six.subs" horiz-adv-x="367" 
d="M312 169h-58v8q0 23 -7.5 30.5t-30.5 7.5h-68q-23 0 -30.5 -7.5t-7.5 -30.5v-81q8 7 25 20q32 19 92 19q49 0 69.5 -20.5t20.5 -69.5v-45q0 -49 -20.5 -69.5t-69.5 -20.5h-85q-49 0 -69.5 20.5t-20.5 69.5v180q0 49 20.5 69.5t69.5 20.5h80q49 0 69.5 -20.5t20.5 -69.5
v-11zM110 61v-58q0 -23 7.5 -30.5t30.5 -7.5h73q23 0 30.5 7.5t7.5 30.5v43q0 23 -7.5 30.5t-30.5 7.5q-68 0 -111 -23z" />
    <glyph glyph-name="seven.subs" horiz-adv-x="341" 
d="M33 270h272v-43l-166 -317h-63l163 305h-156v-67h-50v122z" />
    <glyph glyph-name="eight.subs" horiz-adv-x="370" 
d="M317 169q0 -59 -36 -75q40 -12 40 -79q0 -59 -20.5 -82t-69.5 -23h-92q-49 0 -69.5 23t-20.5 82q0 67 40 79q-36 16 -36 75q0 56 20.5 78.5t69.5 22.5h84q49 0 69.5 -22.5t20.5 -78.5zM221 216h-72q-24 0 -31 -9t-7 -39t7 -39t31 -9h72q24 0 31 9t7 39t-7 39t-31 9z
M225 69h-80q-24 0 -31 -9.5t-7 -43.5q0 -33 7 -42.5t31 -9.5h80q24 0 31 9.5t7 42.5q0 34 -7 43.5t-31 9.5z" />
    <glyph glyph-name="nine.subs" horiz-adv-x="367" 
d="M55 11h58v-8q0 -23 7.5 -30.5t30.5 -7.5h68q23 0 30.5 7.5t7.5 30.5v81q-8 -8 -25 -20q-32 -19 -92 -19q-49 0 -69.5 20.5t-20.5 69.5v45q0 49 20.5 69.5t69.5 20.5h85q49 0 69.5 -20.5t20.5 -69.5v-180q0 -49 -20.5 -69.5t-69.5 -20.5h-80q-49 0 -69.5 20.5t-20.5 69.5
v11zM257 119v58q0 23 -7.5 30.5t-30.5 7.5h-73q-23 0 -30.5 -7.5t-7.5 -30.5v-43q0 -23 7.5 -30.5t30.5 -7.5q68 0 111 23z" />
    <glyph glyph-name="zero.tf" horiz-adv-x="660" 
d="M431 0h-201q-140 0 -140 140v420q0 140 140 140h201q140 0 140 -140v-420q0 -140 -140 -140zM162 562v-424q0 -39 16.5 -55.5t55.5 -16.5h193q39 0 55.5 16.5t16.5 55.5v424q0 39 -16.5 55.5t-55.5 16.5h-193q-39 0 -55.5 -16.5t-16.5 -55.5z" />
    <glyph glyph-name="one.tf" horiz-adv-x="660" 
d="M554 66v-66h-430v66h185v566l-185 -50v68l184 50h73v-634h173z" />
    <glyph glyph-name="two.tf" horiz-adv-x="660" 
d="M563 203v-203h-460v179q0 54 45 89q19 13 99 55l166 85q26 13 40 21q32 22 32 47v86q0 39 -16.5 55.5t-55.5 16.5h-156q-39 0 -55.5 -16.5t-16.5 -55.5v-67h-72v65q0 140 140 140h164q140 0 140 -140v-84q0 -55 -45 -89q-19 -13 -99 -55l-166 -85q-27 -13 -39 -21
q-33 -19 -33 -47v-113h320v137h68z" />
    <glyph glyph-name="three.tf" horiz-adv-x="660" 
d="M90 199h72v-31q0 -59 16 -80.5t56 -21.5h186q41 0 56 25q16 25 16 106q0 80 -16 105q-15 26 -56 26h-184v65h176q42 0 57 24.5t15 95.5q0 74 -16 97q-15 24 -56 24h-170q-40 0 -56 -21.5t-16 -80.5v-31h-72v29q0 91 33 130.5t107 39.5h178q76 0 109 -42t33 -145
q0 -70 -16.5 -104t-51.5 -49q42 -14 58 -47q18 -35 18 -116q0 -109 -33 -153t-109 -44h-194q-74 0 -107 39.5t-33 130.5v29z" />
    <glyph glyph-name="four.tf" horiz-adv-x="660" 
d="M599 186h-105v-124h100v-62h-288v62h116v124h-360l-10 56l360 458h82v-448h105v-66zM137 252h285v360z" />
    <glyph glyph-name="five.tf" horiz-adv-x="660" 
d="M552 634h-366v-255q44 40 89.5 59t111.5 19q94 0 134.5 -33t40.5 -107v-177q0 -140 -140 -140h-174q-140 0 -140 140v59h72v-61q0 -39 16.5 -55.5t55.5 -16.5h166q39 0 55.5 16.5t16.5 55.5v181q0 40 -22 56t-82 16q-108 0 -200 -63l-72 23v349h438v-66z" />
    <glyph glyph-name="six.tf" horiz-adv-x="660" 
d="M550 504h-72v58q0 72 -72 72h-158q-72 0 -72 -72v-203q43 39 86 58q45 20 119 20q97 0 138 -33t41 -107v-157q0 -140 -140 -140h-176q-140 0 -140 140v420q0 140 140 140h166q140 0 140 -140v-56zM176 308v-170q0 -39 16.5 -55.5t55.5 -16.5h168q39 0 55.5 16.5
t16.5 55.5v161q0 41 -22.5 56.5t-86.5 15.5q-65 0 -110 -15t-93 -48z" />
    <glyph glyph-name="seven.tf" horiz-adv-x="660" 
d="M72 700h506v-48l-270 -652h-76l262 634h-354v-128h-68v194z" />
    <glyph glyph-name="eight.tf" horiz-adv-x="660" 
d="M566 512q0 -71 -16 -105t-52 -49q42 -14 58 -47q18 -35 18 -115q0 -109 -33 -152.5t-109 -43.5h-204q-76 0 -109 43.5t-33 152.5q0 79 17 115q17 33 59 47q-36 15 -52 49t-16 105q0 103 33 145.5t109 42.5h188q76 0 109 -42.5t33 -145.5zM420 634h-180q-40 0 -57 -24
q-15 -24 -15 -97q0 -74 15 -98q17 -24 57 -24h180q41 0 56 24q16 23 16 98q0 74 -16 97q-15 24 -56 24zM428 326h-196q-40 0 -57 -26q-15 -26 -15 -104q0 -80 15 -105q16 -25 57 -25h196q41 0 56 25q16 25 16 105q0 79 -16 104q-15 26 -56 26z" />
    <glyph glyph-name="nine.tf" horiz-adv-x="660" 
d="M110 196h72v-58q0 -72 72 -72h158q72 0 72 72v199q-45 -40 -87 -59t-118 -19q-97 0 -138 33t-41 107v161q0 140 140 140h176q140 0 140 -140v-420q0 -140 -140 -140h-166q-140 0 -140 140v56zM484 388v174q0 39 -16.5 55.5t-55.5 16.5h-168q-39 0 -55.5 -16.5
t-16.5 -55.5v-165q0 -41 22.5 -56.5t86.5 -15.5q65 0 110 15t93 48z" />
    <glyph glyph-name="zero.dnom" horiz-adv-x="376" 
d="M234 0h-92q-49 0 -69.5 20.5t-20.5 69.5v180q0 48 21 69t69 21h92q49 0 69.5 -20.5t20.5 -69.5v-180q0 -48 -20.5 -69t-69.5 -21zM110 267v-174q0 -23 7.5 -30.5t30.5 -7.5h80q23 0 30.5 7.5t7.5 30.5v174q0 23 -7.5 30.5t-30.5 7.5h-80q-23 0 -30.5 -7.5t-7.5 -30.5z
" />
    <glyph glyph-name="one.dnom" horiz-adv-x="262" 
d="M163 48h71v-48h-204v48h75v252l-75 -24v50l86 34h47v-312z" />
    <glyph glyph-name="two.dnom" horiz-adv-x="356" 
d="M110 252h-58v18q0 49 20.5 69.5t69.5 20.5h79q49 0 69.5 -21t20.5 -69v-39q0 -28 -15 -41t-64 -31l-96 -35q-18 -6 -24.5 -11t-6.5 -14v-44h158v63h50v-118h-266v109q0 28 15 41t64 31l96 35q18 6 24.5 11t6.5 14v26q0 23 -7.5 30.5t-30.5 7.5h-67q-23 0 -30.5 -7.5
t-7.5 -30.5v-15z" />
    <glyph glyph-name="three.dnom" horiz-adv-x="359" 
d="M42 106h58v-1q0 -32 7 -41.5t31 -9.5h76q24 0 31 9.5t7 43.5q0 33 -7 42.5t-31 9.5h-85v51h81q24 0 31 9t7 39t-7 39t-31 9h-68q-24 0 -31 -9t-7 -39v-4h-58v5q0 56 20.5 78.5t69.5 22.5h80q49 0 69.5 -22.5t20.5 -78.5q0 -57 -37 -75q41 -12 41 -79q0 -59 -20.5 -82
t-69.5 -23h-88q-49 0 -69.5 23t-20.5 82v1z" />
    <glyph glyph-name="four.dnom" horiz-adv-x="390" 
d="M351 99h-57v-51h57v-48h-180v48h66v51h-193l-8 44l203 217h55v-209h57v-52zM106 151h131v135z" />
    <glyph glyph-name="five.dnom" horiz-adv-x="360" 
d="M305 360v-55h-195v-109q21 20 43 28.5t70 10.5q48 0 69 -20.5t21 -69.5v-55q0 -48 -20.5 -69t-69.5 -21h-85q-48 0 -69 20.5t-21 69.5v15h58v-12q0 -23 7.5 -30.5t30.5 -7.5h73q23 0 30.5 7.5t7.5 30.5v52q0 23 -7.5 30.5t-30.5 7.5q-63 0 -107 -24l-58 18v183h253z" />
    <glyph glyph-name="six.dnom" horiz-adv-x="367" 
d="M312 259h-58v8q0 23 -7.5 30.5t-30.5 7.5h-68q-23 0 -30.5 -7.5t-7.5 -30.5v-81q8 8 25 20q32 19 92 19q49 0 69.5 -20.5t20.5 -69.5v-45q0 -49 -20.5 -69.5t-69.5 -20.5h-85q-49 0 -69.5 20.5t-20.5 69.5v180q0 49 20.5 69.5t69.5 20.5h80q49 0 69.5 -20.5t20.5 -69.5
v-11zM110 151v-58q0 -23 7.5 -30.5t30.5 -7.5h73q23 0 30.5 7.5t7.5 30.5v43q0 23 -7.5 30.5t-30.5 7.5q-68 0 -111 -23z" />
    <glyph glyph-name="seven.dnom" horiz-adv-x="341" 
d="M33 360h272v-43l-166 -317h-63l163 305h-156v-67h-50v122z" />
    <glyph glyph-name="eight.dnom" horiz-adv-x="370" 
d="M317 259q0 -59 -36 -75q40 -12 40 -79q0 -59 -20.5 -82t-69.5 -23h-92q-49 0 -69.5 23t-20.5 82q0 67 40 79q-36 16 -36 75q0 56 20.5 78.5t69.5 22.5h84q49 0 69.5 -22.5t20.5 -78.5zM221 306h-72q-24 0 -31 -9t-7 -39t7 -39t31 -9h72q24 0 31 9t7 39t-7 39t-31 9z
M225 159h-80q-24 0 -31 -9.5t-7 -43.5q0 -33 7 -42.5t31 -9.5h80q24 0 31 9.5t7 42.5q0 34 -7 43.5t-31 9.5z" />
    <glyph glyph-name="nine.dnom" horiz-adv-x="367" 
d="M55 101h58v-8q0 -23 7.5 -30.5t30.5 -7.5h68q23 0 30.5 7.5t7.5 30.5v81q-8 -8 -25 -20q-32 -19 -92 -19q-49 0 -69.5 20.5t-20.5 69.5v45q0 49 20.5 69.5t69.5 20.5h85q49 0 69.5 -20.5t20.5 -69.5v-180q0 -49 -20.5 -69.5t-69.5 -20.5h-80q-49 0 -69.5 20.5t-20.5 69.5
v11zM257 209v58q0 23 -7.5 30.5t-30.5 7.5h-73q-23 0 -30.5 -7.5t-7.5 -30.5v-43q0 -23 7.5 -30.5t30.5 -7.5q68 0 111 23z" />
    <glyph glyph-name="zero.numr" horiz-adv-x="376" 
d="M234 340h-92q-49 0 -69.5 20.5t-20.5 69.5v180q0 48 21 69t69 21h92q49 0 69.5 -20.5t20.5 -69.5v-180q0 -48 -20.5 -69t-69.5 -21zM110 607v-174q0 -23 7.5 -30.5t30.5 -7.5h80q23 0 30.5 7.5t7.5 30.5v174q0 23 -7.5 30.5t-30.5 7.5h-80q-23 0 -30.5 -7.5t-7.5 -30.5z
" />
    <glyph glyph-name="one.numr" horiz-adv-x="262" 
d="M163 388h71v-48h-204v48h75v252l-75 -24v50l86 34h47v-312z" />
    <glyph glyph-name="two.numr" horiz-adv-x="356" 
d="M110 592h-58v18q0 49 20.5 69.5t69.5 20.5h79q49 0 69.5 -21t20.5 -69v-39q0 -28 -15 -41t-64 -31l-96 -35q-18 -6 -24.5 -11t-6.5 -14v-44h158v63h50v-118h-266v109q0 28 15 41t64 31l96 35q18 6 24.5 11t6.5 14v26q0 23 -7.5 30.5t-30.5 7.5h-67q-23 0 -30.5 -7.5
t-7.5 -30.5v-15z" />
    <glyph glyph-name="three.numr" horiz-adv-x="359" 
d="M42 446h58v-1q0 -32 7 -41.5t31 -9.5h76q24 0 31 9.5t7 43.5q0 33 -7 42.5t-31 9.5h-85v51h81q24 0 31 9t7 39t-7 39t-31 9h-68q-24 0 -31 -9t-7 -39v-4h-58v5q0 56 20.5 78.5t69.5 22.5h80q49 0 69.5 -22.5t20.5 -78.5q0 -57 -37 -75q41 -12 41 -79q0 -59 -20.5 -82
t-69.5 -23h-88q-49 0 -69.5 23t-20.5 82v1z" />
    <glyph glyph-name="four.numr" horiz-adv-x="390" 
d="M351 439h-57v-51h57v-48h-180v48h66v51h-193l-8 44l203 217h55v-209h57v-52zM106 491h131v135z" />
    <glyph glyph-name="five.numr" horiz-adv-x="360" 
d="M305 700v-55h-195v-109q21 20 43 28.5t70 10.5q48 0 69 -20.5t21 -69.5v-55q0 -48 -20.5 -69t-69.5 -21h-85q-48 0 -69 20.5t-21 69.5v15h58v-12q0 -23 7.5 -30.5t30.5 -7.5h73q23 0 30.5 7.5t7.5 30.5v52q0 23 -7.5 30.5t-30.5 7.5q-63 0 -107 -24l-58 18v183h253z" />
    <glyph glyph-name="six.numr" horiz-adv-x="367" 
d="M312 599h-58v8q0 23 -7.5 30.5t-30.5 7.5h-68q-23 0 -30.5 -7.5t-7.5 -30.5v-81q8 7 25 20q32 19 92 19q49 0 69.5 -20.5t20.5 -69.5v-45q0 -49 -20.5 -69.5t-69.5 -20.5h-85q-49 0 -69.5 20.5t-20.5 69.5v180q0 49 20.5 69.5t69.5 20.5h80q49 0 69.5 -20.5t20.5 -69.5
v-11zM110 491v-58q0 -23 7.5 -30.5t30.5 -7.5h73q23 0 30.5 7.5t7.5 30.5v43q0 23 -7.5 30.5t-30.5 7.5q-68 0 -111 -23z" />
    <glyph glyph-name="seven.numr" horiz-adv-x="341" 
d="M33 700h272v-43l-166 -317h-63l163 305h-156v-67h-50v122z" />
    <glyph glyph-name="eight.numr" horiz-adv-x="370" 
d="M317 599q0 -59 -36 -75q40 -12 40 -79q0 -59 -20.5 -82t-69.5 -23h-92q-49 0 -69.5 23t-20.5 82q0 67 40 79q-36 16 -36 75q0 56 20.5 78.5t69.5 22.5h84q49 0 69.5 -22.5t20.5 -78.5zM221 646h-72q-24 0 -31 -9t-7 -39t7 -39t31 -9h72q24 0 31 9t7 39t-7 39t-31 9z
M225 499h-80q-24 0 -31 -9.5t-7 -43.5q0 -33 7 -42.5t31 -9.5h80q24 0 31 9.5t7 42.5q0 34 -7 43.5t-31 9.5z" />
    <glyph glyph-name="nine.numr" horiz-adv-x="367" 
d="M55 441h58v-8q0 -23 7.5 -30.5t30.5 -7.5h68q23 0 30.5 7.5t7.5 30.5v81q-8 -8 -25 -20q-32 -19 -92 -19q-49 0 -69.5 20.5t-20.5 69.5v45q0 49 20.5 69.5t69.5 20.5h85q49 0 69.5 -20.5t20.5 -69.5v-180q0 -49 -20.5 -69.5t-69.5 -20.5h-80q-49 0 -69.5 20.5t-20.5 69.5
v11zM257 549v58q0 23 -7.5 30.5t-30.5 7.5h-73q-23 0 -30.5 -7.5t-7.5 -30.5v-43q0 -23 7.5 -30.5t30.5 -7.5q68 0 111 23z" />
    <glyph glyph-name="numbersign.tf" horiz-adv-x="660" 
d="M624 460h-121l-55 -188h107v-60h-124l-61 -212h-67l61 212h-150l-61 -212h-67l61 212h-110v60h127l55 188h-113v60h130l52 180h67l-52 -180h150l52 180h67l-52 -180h104v-60zM381 272l54 188h-150l-54 -188h150z" />
    <glyph glyph-name="florin.tf" horiz-adv-x="660" 
d="M509 700v-66h-83q-39 0 -55.5 -16.5t-16.5 -55.5v-132h145v-62h-145v-228q0 -140 -140 -140h-63v66h59q39 0 55.5 16.5t16.5 55.5v230h-124v62h124v130q0 140 140 140h87z" />
    <glyph glyph-name="cent.tf" horiz-adv-x="660" 
d="M542 434h-72v34q0 39 -16.5 55.5t-55.5 16.5h-36v-374h36q39 0 55.5 16.5t16.5 55.5v34h72v-32q0 -140 -140 -140h-38v-100h-58v100h-38q-140 0 -140 140v226q0 140 140 140h38v94h58v-94h38q140 0 140 -140v-32zM308 166v374h-36q-39 0 -55.5 -16.5t-16.5 -55.5v-230
q0 -39 16.5 -55.5t55.5 -16.5h36z" />
    <glyph glyph-name="currency.tf" horiz-adv-x="660" 
d="M527 438v-160q0 -49 -16 -80l73 -73l-45 -46l-74 74q-31 -15 -78 -15h-113q-46 0 -78 15l-74 -74l-45 46l73 73q-16 31 -16 80v160q0 46 15 78l-72 72l45 46l72 -72q31 16 80 16h113q49 0 80 -16l72 72l45 -46l-72 -72q15 -32 15 -78zM276 202h109q39 0 55.5 16.5
t16.5 55.5v168q0 39 -16.5 55.5t-55.5 16.5h-109q-39 0 -55.5 -16.5t-16.5 -55.5v-168q0 -39 16.5 -55.5t55.5 -16.5z" />
    <glyph glyph-name="dollar.tf" horiz-adv-x="660" 
d="M356 634v-248l76 -17q55 -13 85 -31q61 -36 61 -155q0 -100 -33 -141.5t-109 -41.5h-78v-92h-64v92h-72q-74 0 -107 41.5t-33 141.5v28h72v-33q0 -66 15 -89t57 -23h70v263l-66 15q-67 15 -102 42q-44 35 -44 137q0 96 33 136.5t109 40.5h68v92h64v-92h65q74 0 107 -40.5
t33 -136.5v-27h-72v32q0 62 -15.5 84t-56.5 22h-63zM265 407l31 -7v234h-66q-41 0 -56.5 -22t-15.5 -84q0 -65 19 -85q20 -20 88 -36zM356 316v-250h76q42 0 57 23t15 89q0 69 -17 91q-17 21 -83 36z" />
    <glyph glyph-name="Euro.tf" horiz-adv-x="660" 
d="M604 484h-72v78q0 39 -16.5 55.5t-55.5 16.5h-190q-39 0 -55.5 -16.5t-16.5 -55.5v-89h256v-64h-256v-110h256v-64h-256v-97q0 -39 16.5 -55.5t55.5 -16.5h190q39 0 55.5 16.5t16.5 55.5v78h72v-76q0 -140 -140 -140h-198q-140 0 -140 140v95h-82v64h82v110h-82v64h82v87
q0 140 140 140h198q140 0 140 -140v-76z" />
    <glyph glyph-name="sterling.tf" horiz-adv-x="660" 
d="M513 186h68v-186h-521v66h62q11 0 15.5 4.5t4.5 15.5v230h-82v64h82v180q0 140 140 140h155q140 0 140 -140v-76h-72v78q0 39 -16.5 55.5t-55.5 16.5h-147q-39 0 -55.5 -16.5t-16.5 -55.5v-182h216v-64h-216v-250h299v120z" />
    <glyph glyph-name="yen.tf" horiz-adv-x="660" 
d="M663 638h-82l-165 -300h119v-62h-154l-15 -28v-32h169v-62h-169v-92h106v-62h-284v62h106v92h-169v62h169v32l-15 28h-154v62h119l-165 300h-82v62h242v-62h-82l166 -300h16l166 300h-82v62h240v-62z" />
    <glyph glyph-name="ampersand.ss01" horiz-adv-x="682" 
d="M637 393v-65h-81v-188q0 -140 -140 -140h-191q-140 0 -140 140v112q0 87 74 108q-66 26 -66 108v92q0 140 140 140h168q140 0 140 -140v-63h-72v65q0 39 -16.5 55.5t-55.5 16.5h-160q-39 0 -55.5 -16.5t-16.5 -55.5v-97q0 -39 16.5 -55.5t55.5 -16.5h400zM484 138v190
h-255q-39 0 -55.5 -16.5t-16.5 -55.5v-118q0 -39 16.5 -55.5t55.5 -16.5h183q39 0 55.5 16.5t16.5 55.5z" />
    </font>
</defs>
</svg>
